<?xml version="1.0" standalone="no"?>
<!DOCTYPE svg PUBLIC "-//W3C//DTD SVG 20010904//EN"
 "http://www.w3.org/TR/2001/REC-SVG-20010904/DTD/svg10.dtd">
<svg version="1.0" xmlns="http://www.w3.org/2000/svg"
 width="572.000000pt" height="235.000000pt" viewBox="0 0 572.000000 235.000000"
 preserveAspectRatio="xMidYMid meet">
<metadata>
Created by potrace 1.16, written by Peter Selinger 2001-2019
</metadata>
<g transform="translate(0.000000,235.000000) scale(0.100000,-0.100000)"
fill="#000000" stroke="none" id="denied">
<path d="M4950 1935 c-212 -30 -406 -56 -1165 -158 -191 -25 -240 -35 -240
-47 0 -20 -32 -25 -61 -10 -19 11 -65 7 -266 -19 -134 -18 -250 -35 -258 -38
-8 -3 -32 -7 -54 -8 -21 -1 -42 -9 -47 -16 -6 -10 -9 -10 -9 -2 0 9 -7 10 -22
4 -31 -11 -154 -24 -205 -22 -33 2 -43 -1 -43 -13 0 -8 -4 -18 -10 -21 -6 -3
-7 1 -4 9 8 22 -2 20 -26 -4 -22 -22 -110 -29 -110 -9 0 13 -129 3 -144 -11
-5 -5 -14 -6 -21 -3 -8 2 -61 -3 -120 -11 -58 -9 -109 -16 -113 -17 -4 0 2 -4
13 -8 17 -7 15 -9 -12 -13 -26 -3 -30 -2 -22 8 8 10 3 12 -23 8 -34 -5 -523
-71 -1263 -169 -383 -52 -509 -76 -578 -112 -41 -21 -108 -84 -101 -95 3 -5
-2 -15 -11 -22 -16 -12 -16 -19 -1 -127 27 -187 25 -178 52 -173 32 6 30 -2
-3 -20 -24 -13 -25 -15 -8 -17 11 -1 23 -1 27 -1 3 1 9 -5 12 -13 3 -8 2 -14
-2 -14 -22 4 -42 -2 -42 -12 0 -7 10 -9 26 -5 17 5 23 3 19 -4 -3 -5 -15 -10
-25 -10 -15 0 -18 -6 -14 -32 3 -18 18 -132 34 -252 19 -140 35 -228 46 -243
9 -14 41 -37 72 -51 53 -25 66 -27 187 -26 135 1 307 19 338 36 10 5 59 11
110 14 86 4 654 80 632 84 -5 1 -30 1 -55 1 -25 -1 -52 3 -60 9 -12 7 -8 10
17 10 17 0 33 5 35 10 4 13 95 1 112 -15 8 -8 26 -10 56 -5 25 4 35 8 23 9
-13 0 -23 6 -23 11 0 14 56 13 79 -2 10 -6 27 -8 37 -4 11 4 39 9 64 11 84 6
284 35 290 43 3 4 32 8 65 8 50 1 353 39 473 59 17 3 32 12 32 19 0 8 12 17
28 22 57 16 -59 22 -153 8 -49 -8 -108 -16 -130 -18 -125 -11 -215 -32 -215
-50 0 -6 -6 -3 -14 6 -9 13 -20 15 -41 9 -20 -5 -25 -10 -17 -15 7 -4 19 -3
26 3 17 14 25 5 19 -20 -6 -23 -10 -24 -30 -3 -14 14 -18 13 -37 -4 -27 -25
-62 -36 -71 -22 -5 8 -11 8 -21 -1 -20 -16 -18 -1 3 19 16 16 15 17 -2 21 -10
1 -72 -4 -139 -14 -67 -9 -188 -25 -271 -36 -82 -11 -159 -25 -170 -30 -11 -5
-29 -11 -40 -12 -11 -2 -28 -7 -38 -12 -9 -4 -26 -5 -37 -2 -11 3 -20 1 -20
-4 0 -5 -12 -9 -27 -8 -27 0 -27 1 -5 9 12 5 22 11 22 13 0 2 -73 -7 -162 -19
-90 -12 -238 -32 -330 -44 -92 -13 -166 -26 -164 -29 3 -3 -64 -6 -147 -6
-142 0 -155 2 -202 25 -50 25 -50 25 -60 88 -5 34 -16 66 -23 71 -16 10 -17
21 -3 30 14 9 -26 293 -42 303 -9 6 -8 8 2 8 8 0 11 6 7 16 -3 9 -9 44 -12 78
-7 74 -7 74 -39 71 -33 -4 -32 13 1 21 24 6 26 10 20 43 -19 122 -19 171 -1
191 20 22 7 28 -14 7 -11 -10 -13 -9 -9 2 2 7 26 20 53 30 38 12 50 21 50 36
0 22 37 31 165 39 57 4 270 32 1260 166 124 17 376 51 560 76 184 24 364 50
400 56 36 7 68 11 72 10 21 -5 222 28 228 38 5 7 16 9 29 5 27 -8 311 26 311
38 0 5 10 5 23 1 12 -3 18 -3 14 2 -5 5 17 14 50 21 42 8 60 8 65 0 5 -8 28
-8 85 1 43 6 120 17 171 23 51 7 95 16 98 20 2 5 17 6 33 3 15 -3 59 2 97 12
38 9 84 16 102 15 48 -3 645 79 659 91 6 5 27 8 45 6 28 -2 34 1 36 20 4 27
32 29 39 2 4 -17 11 -19 42 -15 445 65 549 74 640 54 73 -15 106 -50 115 -119
39 -324 71 -520 83 -520 7 0 13 -4 13 -10 0 -5 -5 -10 -11 -10 -6 0 -9 -14 -7
-32 2 -25 7 -32 21 -30 9 2 17 -2 17 -8 0 -5 -7 -10 -16 -10 -14 0 -16 -8 -10
-47 3 -26 12 -51 19 -56 9 -7 9 -10 0 -13 -7 -3 -10 -16 -7 -33 4 -20 -1 -36
-21 -59 l-27 -32 45 1 c40 2 47 6 58 31 13 32 13 28 -60 570 -44 320 -49 350
-72 374 -74 81 -233 91 -599 39z m-2284 -357 c-10 -6 -20 -7 -24 -3 -9 8 20
25 31 18 5 -3 2 -10 -7 -15z m-2523 -360 c-13 -12 -25 -19 -28 -16 -8 7 23 38
38 38 6 0 2 -10 -10 -22z m-56 -284 c-3 -3 -12 -4 -19 -1 -8 3 -5 6 6 6 11 1
17 -2 13 -5z m2463 -504 c-18 -12 -43 -13 -36 -2 2 4 15 8 28 9 18 2 19 0 8
-7z m-683 -76 c-3 -3 -12 -4 -19 -1 -8 3 -5 6 6 6 11 1 17 -2 13 -5z m-70 -10
c-3 -3 -12 -4 -19 -1 -8 3 -5 6 6 6 11 1 17 -2 13 -5z m-1167 -174 c0 -5 -4
-10 -9 -10 -6 0 -13 5 -16 10 -3 6 1 10 9 10 9 0 16 -4 16 -10z"/>
<path d="M5200 1772 c0 -16 9 -37 20 -47 28 -25 37 -64 64 -268 13 -97 29
-184 35 -191 7 -8 8 -15 2 -18 -15 -5 10 -168 26 -168 7 0 13 -4 13 -10 0 -5
-6 -10 -13 -10 -15 0 -37 -55 -37 -93 0 -19 4 -25 15 -21 8 4 15 12 15 20 0 8
6 11 15 8 25 -10 38 6 18 22 -17 13 -17 14 0 8 27 -10 44 11 68 84 18 54 22
89 22 177 0 240 -91 476 -200 521 -50 21 -63 18 -63 -14z m157 -538 c-3 -3
-12 -4 -19 -1 -8 3 -5 6 6 6 11 1 17 -2 13 -5z"/>
<path d="M5098 1783 c-27 -4 -28 -7 -28 -59 0 -40 -5 -59 -20 -74 -19 -19 -19
-21 20 -311 39 -282 46 -384 28 -373 -4 3 -8 -7 -8 -22 l0 -27 73 7 c119 12
117 11 110 64 -6 50 -13 65 -20 45 -6 -16 -33 -17 -33 -2 0 6 9 13 20 16 11 3
20 13 20 22 0 9 -20 164 -45 345 -25 180 -45 339 -45 352 0 25 -7 27 -72 17z
m97 -713 c3 -5 -1 -10 -9 -10 -9 0 -16 5 -16 10 0 6 4 10 9 10 6 0 13 -4 16
-10z m25 -90 c13 -9 13 -10 0 -10 -8 0 -22 5 -30 10 -13 9 -13 10 0 10 8 0 22
-5 30 -10z m-70 -40 c0 -5 -10 -10 -22 -10 -19 0 -20 2 -8 10 19 13 30 13 30
0z"/>
<path d="M5010 1745 c0 -14 5 -25 10 -25 6 0 10 11 10 25 0 14 -4 25 -10 25
-5 0 -10 -11 -10 -25z"/>
<path d="M4822 1723 c-1 -21 -8 -33 -19 -36 -15 -3 -13 -6 8 -15 35 -14 86
-77 102 -126 18 -54 37 -59 37 -9 -1 48 -28 218 -29 181 -2 -50 -36 -44 -44 7
l-4 30 -2 -32 c-1 -25 -5 -33 -20 -33 -15 0 -21 8 -24 33 l-4 32 -1 -32z"/>
<path d="M4681 1712 c-1 -16 -6 -22 -18 -20 -10 1 -24 -1 -31 -6 -8 -5 -20 -2
-31 8 -24 22 -31 20 -31 -8 0 -14 9 -31 20 -39 17 -12 24 -42 45 -193 13 -98
29 -210 35 -249 6 -38 12 -83 14 -100 1 -16 6 -62 10 -100 7 -60 6 -73 -8 -84
-21 -17 -5 -31 36 -31 14 0 28 -4 30 -9 2 -4 29 -6 61 -3 47 4 57 7 53 21 -3
9 -8 37 -11 62 -5 36 -13 49 -36 63 -29 17 -39 45 -16 47 6 0 -3 6 -22 13 -19
7 -37 18 -39 24 -5 16 10 15 34 -3 10 -8 27 -15 37 -15 9 0 17 -5 17 -12 0 -6
2 -9 5 -6 3 3 -13 140 -35 304 -35 262 -43 301 -61 319 -12 11 -19 14 -15 8 5
-9 0 -13 -13 -13 -12 0 -21 8 -24 23 l-4 22 -2 -23z m49 -622 c0 -5 -4 -10
-10 -10 -5 0 -10 5 -10 10 0 6 5 10 10 10 6 0 10 -4 10 -10z m40 -40 c0 -5 -4
-10 -10 -10 -5 0 -10 5 -10 10 0 6 5 10 10 10 6 0 10 -4 10 -10z m20 -20 c0
-5 -7 -10 -16 -10 -8 0 -12 5 -9 10 3 6 10 10 16 10 5 0 9 -4 9 -10z m10 -40
c0 -5 -7 -10 -16 -10 -8 0 -12 5 -9 10 3 6 10 10 16 10 5 0 9 -4 9 -10z m-20
-100 c0 -5 -4 -10 -10 -10 -5 0 -10 5 -10 10 0 6 5 10 10 10 6 0 10 -4 10 -10z"/>
<path d="M4375 1686 c-73 -10 -80 -13 -83 -35 -3 -16 4 -30 18 -41 22 -17 22
-13 81 -462 9 -69 15 -88 28 -89 10 0 11 -2 4 -6 -7 -2 -13 -20 -13 -40 0 -33
1 -34 28 -28 20 4 41 -1 73 -19 l44 -26 -40 -1 c-22 -1 -44 -3 -50 -4 -5 -2
-17 -3 -25 -4 -8 -1 -23 -17 -33 -37 -24 -48 -9 -77 36 -70 18 3 50 8 72 11
60 9 76 15 69 27 -5 7 -1 9 9 5 27 -10 29 24 2 49 -14 13 -25 33 -25 45 0 15
-4 19 -15 15 -11 -4 -19 3 -25 20 -13 33 -13 34 4 34 8 0 17 -6 19 -12 11 -27
6 37 -13 174 -56 407 -57 417 -43 438 8 11 13 30 11 43 -4 27 -23 29 -133 13z
m89 -499 c-16 -21 -19 -22 -34 -8 -14 15 -13 17 10 22 41 11 42 10 24 -14z
m66 -127 c0 -5 -9 -10 -20 -10 -11 0 -20 5 -20 10 0 6 9 10 20 10 11 0 20 -4
20 -10z m-17 -80 c-7 -8 -22 24 -16 34 4 5 10 1 13 -10 4 -10 6 -21 3 -24z m3
-92 c5 -8 2 -9 -11 -4 -11 4 -22 2 -27 -6 -6 -10 -8 -8 -8 5 0 19 35 24 46 5z"/>
<path d="M3308 1653 c6 -2 18 -2 25 0 6 3 1 5 -13 5 -14 0 -19 -2 -12 -5z"/>
<path d="M4135 1651 c-40 -8 -46 -44 -11 -76 29 -27 40 -65 57 -195 7 -60 21
-112 35 -140 20 -39 23 -41 19 -15 -39 260 -43 324 -19 360 8 13 14 34 12 47
-3 25 -36 32 -93 19z"/>
<path d="M3870 1616 c-75 -13 -90 -36 -47 -71 14 -11 50 -69 79 -130 30 -60
81 -165 113 -232 42 -85 65 -123 77 -123 9 0 21 -8 27 -17 6 -11 22 -17 45
-17 20 0 36 -4 36 -8 0 -4 -8 -8 -17 -8 -15 0 -16 -2 -3 -9 8 -6 18 -7 24 -4
5 4 7 -3 4 -15 -6 -20 13 -31 50 -32 27 0 -15 192 -50 225 -7 7 -8 3 -3 -12 6
-20 3 -23 -23 -23 -38 0 -48 24 -22 50 23 23 27 38 5 20 -13 -10 -15 -9 -15 9
0 12 6 21 15 21 10 0 -9 47 -61 158 -42 86 -83 174 -92 195 -19 42 -28 44
-142 23z m245 -406 c-3 -5 -11 -10 -16 -10 -6 0 -7 5 -4 10 3 6 11 10 16 10 6
0 7 -4 4 -10z m5 -94 c0 -3 -4 -8 -10 -11 -5 -3 -10 -1 -10 4 0 6 5 11 10 11
6 0 10 -2 10 -4z"/>
<path d="M2500 1600 c-12 -8 -11 -10 8 -10 12 0 22 5 22 10 0 13 -11 13 -30 0z"/>
<path d="M3661 1589 c-30 -5 -57 -11 -59 -14 -11 -11 17 -56 48 -77 24 -16 46
-45 69 -91 46 -96 56 -78 37 64 -9 62 -16 117 -16 121 0 9 -5 9 -79 -3z"/>
<path d="M3460 1563 c-64 -10 -70 -13 -70 -39 0 -14 9 -33 20 -42 16 -14 24
-55 50 -252 17 -129 35 -237 41 -238 5 -2 17 -11 26 -20 12 -13 13 -17 2 -21
-7 -2 -15 1 -17 8 -2 6 -7 11 -11 11 -4 0 -1 -41 6 -91 12 -81 12 -94 -2 -109
-17 -18 -19 -38 -6 -58 6 -11 24 -11 94 -1 87 12 87 12 87 41 0 16 -4 27 -9
23 -5 -3 -12 -1 -16 5 -3 5 -1 10 4 10 12 0 14 42 5 77 -5 18 -11 21 -34 17
-20 -5 -33 0 -53 20 -28 28 -18 37 28 24 42 -12 58 -10 48 4 -4 7 -7 26 -8 43
0 29 -1 30 -55 33 -71 3 -90 10 -70 22 8 5 22 8 30 6 60 -16 90 -16 90 -1 0
11 -11 15 -37 16 -21 0 -31 3 -23 6 8 3 21 12 28 21 7 10 12 11 12 4 0 -7 4
-12 8 -12 5 0 3 42 -4 93 -34 237 -54 389 -54 397 0 10 -59 11 -110 3z m143
-439 c11 -11 -3 -24 -18 -18 -8 4 -12 10 -9 15 6 11 18 12 27 3z m-43 -64 c0
-5 -5 -10 -11 -10 -5 0 -7 5 -4 10 3 6 8 10 11 10 2 0 4 -4 4 -10z m40 -240
c-20 -13 -33 -13 -25 0 3 6 14 10 23 10 15 0 15 -2 2 -10z m60 -14 c0 -9 -30
-14 -35 -6 -4 6 3 10 14 10 12 0 21 -2 21 -4z"/>
<path d="M3135 1489 c4 -17 15 -39 26 -50 24 -24 27 -38 53 -227 20 -148 22
-157 44 -160 28 -4 29 -22 1 -22 -19 0 -21 -4 -16 -37 4 -21 11 -79 18 -130
10 -78 14 -91 28 -85 13 5 14 3 4 -10 -15 -18 -7 -29 15 -21 13 3 13 1 -2 -11
-11 -9 -30 -16 -43 -16 -18 0 -23 -6 -23 -25 0 -23 3 -25 28 -19 39 9 73 44
66 66 -3 12 0 18 10 18 26 0 18 30 -11 42 l-28 11 25 7 c14 3 27 3 28 -2 13
-30 42 52 42 118 0 21 -3 24 -26 18 -19 -5 -25 -4 -20 5 4 6 17 11 28 11 20 0
21 4 15 83 -9 147 -64 317 -127 397 -31 40 -83 70 -120 70 -19 0 -21 -4 -15
-31z m223 -491 c-5 -14 -88 -20 -88 -7 0 4 17 10 38 12 20 2 41 4 45 5 5 1 7
-4 5 -10z m-28 -48 c0 -5 -8 -10 -17 -10 -15 0 -16 2 -3 10 19 12 20 12 20 0z
m60 -20 c0 -5 -4 -10 -10 -10 -5 0 -10 5 -10 10 0 6 5 10 10 10 6 0 10 -4 10
-10z"/>
<path d="M2985 1498 c-80 -13 -93 -31 -50 -70 19 -18 26 -37 31 -86 4 -34 13
-67 20 -73 10 -8 14 -37 14 -93 0 -44 3 -105 7 -134 5 -47 8 -52 27 -47 20 6
20 5 2 -9 -16 -13 -17 -23 -11 -75 6 -56 9 -62 33 -67 15 -3 38 -10 52 -16 22
-10 23 -12 6 -16 -10 -2 -23 1 -28 6 -5 5 -19 7 -30 4 -18 -4 -20 -10 -14 -49
4 -31 1 -51 -10 -68 -9 -15 -13 -32 -9 -45 6 -20 12 -21 58 -15 104 12 127 17
127 26 0 6 -4 7 -10 4 -5 -3 -10 -2 -10 4 0 5 5 11 11 13 19 6 -1 57 -24 61
-21 4 -21 4 2 6 21 1 23 5 17 34 -3 17 -8 57 -12 87 -4 39 -13 60 -28 72 -18
15 -19 18 -3 18 9 0 17 7 17 15 0 15 -19 14 -68 -1 -8 -2 -12 3 -10 13 2 10
18 21 36 27 19 5 32 15 32 25 0 9 -14 113 -30 231 -16 118 -30 218 -30 223 0
9 -37 7 -115 -5z m57 -291 c-2 -35 0 -57 7 -57 5 0 11 26 13 57 2 46 7 59 21
61 15 3 17 -6 17 -85 0 -48 -4 -93 -8 -99 -4 -6 -22 -13 -39 -16 -27 -4 -33
-1 -33 14 0 11 7 18 20 18 11 0 20 4 20 10 0 5 -10 9 -22 7 -22 -2 -23 2 -26
76 -3 71 -1 78 15 75 15 -3 17 -12 15 -61z m13 -267 c3 -5 1 -10 -4 -10 -6 0
-11 5 -11 10 0 6 2 10 4 10 3 0 8 -4 11 -10z m70 -200 c-3 -5 -10 -10 -16 -10
-5 0 -9 5 -9 10 0 6 7 10 16 10 8 0 12 -4 9 -10z m55 -20 c-8 -5 -19 -10 -25
-10 -5 0 -3 5 5 10 8 5 20 10 25 10 6 0 3 -5 -5 -10z m-3 -36 c-3 -3 -12 -4
-19 -1 -8 3 -5 6 6 6 11 1 17 -2 13 -5z"/>
<path d="M4870 1466 c0 -20 -7 -53 -15 -73 -20 -47 -19 -97 2 -114 9 -8 27
-38 40 -68 15 -34 28 -50 34 -44 13 13 -32 325 -48 331 -9 2 -13 -8 -13 -32z"/>
<path d="M2604 1442 c-7 -26 -7 -26 -61 -6 -24 9 -45 15 -47 13 -11 -12 8 -69
25 -74 25 -8 68 -65 84 -111 l12 -35 18 27 c15 24 16 36 7 106 -11 85 -28 120
-38 80z"/>
<path d="M2408 1420 c-32 -25 -55 -73 -70 -144 -21 -107 26 -288 90 -349 15
-14 56 -43 92 -65 84 -51 105 -80 103 -140 -4 -90 -8 -110 -20 -105 -7 3 -11
-6 -11 -25 1 -21 5 -29 14 -25 8 3 14 9 14 15 0 5 5 6 12 2 8 -5 9 -2 5 9 -3
10 -2 17 2 17 5 0 11 -5 13 -12 7 -19 45 43 62 101 27 91 17 210 -24 306 -22
51 -80 109 -147 147 -78 44 -103 78 -103 142 0 28 6 60 13 71 7 11 12 26 11
33 -1 6 -2 19 -3 27 -1 21 -24 19 -53 -5z m242 -780 c0 -5 -4 -10 -10 -10 -5
0 -10 5 -10 10 0 6 5 10 10 10 6 0 10 -4 10 -10z"/>
<path d="M2199 1387 c-10 -22 -15 -25 -32 -15 -11 5 -33 14 -50 19 -29 8 -29
8 -23 -24 4 -18 19 -42 36 -55 37 -29 67 -78 86 -141 16 -55 31 -71 40 -46 8
21 -24 267 -36 279 -5 5 -14 -2 -21 -17z"/>
<path d="M2016 1371 c-68 -45 -97 -151 -78 -282 20 -142 66 -210 196 -293 63
-39 86 -71 93 -127 3 -24 11 -48 17 -52 7 -5 3 -6 -8 -3 -17 6 -18 2 -13 -30
5 -32 4 -36 -13 -31 -16 4 -20 0 -20 -19 0 -37 28 -30 73 18 40 42 40 42 16
49 -24 7 -24 7 -1 8 67 3 65 251 -2 366 -31 52 -81 97 -145 130 -84 42 -117
116 -87 190 17 39 22 95 9 95 -5 0 -21 -9 -37 -19z m255 -689 c-7 -2 -18 1
-23 6 -8 8 -4 9 13 5 13 -4 18 -8 10 -11z"/>
<path d="M3884 1360 c3 -14 10 -73 17 -132 10 -86 16 -108 28 -108 12 0 13 -2
3 -9 -17 -10 -5 -61 15 -61 10 0 11 5 5 16 -5 9 -7 26 -4 36 3 11 -1 24 -9 29
-8 5 -9 9 -3 9 17 0 -10 160 -35 206 -16 29 -21 33 -17 14z"/>
<path d="M3686 1335 c-3 -9 -6 -33 -6 -53 0 -20 -6 -49 -14 -63 -25 -48 10
-129 56 -129 22 0 22 18 4 148 -13 94 -27 129 -40 97z"/>
<path d="M1741 1333 c-43 -4 -43 -5 -37 -36 4 -18 11 -34 17 -36 30 -10 80
-68 100 -116 27 -65 55 -76 46 -17 -3 20 -11 76 -18 125 -13 98 -2 89 -108 80z"/>
<path d="M1563 1308 c-74 -10 -92 -24 -74 -56 5 -9 22 -16 38 -17 26 0 28 -3
31 -44 2 -26 -1 -47 -8 -51 -13 -8 -11 -28 39 -395 25 -183 27 -213 15 -232
-8 -12 -14 -30 -14 -40 1 -16 2 -16 16 2 l16 20 -4 -20 c-3 -17 2 -20 32 -18
19 1 36 6 38 12 3 8 9 8 24 0 11 -6 31 -8 44 -5 23 6 25 10 19 49 -10 72 -62
464 -86 640 -18 138 -25 167 -38 166 -9 -1 -48 -6 -88 -11z m105 -705 c5 -18
-10 -16 -34 2 -18 15 -18 15 5 13 14 -2 26 -9 29 -15z"/>
<path d="M1400 1292 c0 -5 -6 -16 -13 -26 -13 -17 -15 -17 -45 -2 -43 22 -52
20 -52 -10 0 -16 11 -35 30 -51 36 -30 72 -96 95 -176 17 -58 30 -76 45 -61 8
8 -22 274 -35 315 -6 19 -25 27 -25 11z"/>
<path d="M1196 1250 c-85 -75 -115 -248 -81 -473 17 -112 52 -221 90 -278 20
-31 32 -39 58 -40 21 -1 25 -3 12 -6 -17 -5 -16 -7 10 -19 17 -8 22 -12 13 -9
-10 2 -18 0 -18 -5 0 -5 12 -12 28 -16 15 -3 35 -8 45 -11 27 -7 21 35 -12 84
-23 34 -31 62 -45 170 -10 70 -29 206 -42 302 -28 205 -29 220 -8 249 16 23
11 82 -6 82 -5 0 -25 -14 -44 -30z m104 -764 c0 -3 -4 -8 -10 -11 -5 -3 -10
-1 -10 4 0 6 5 11 10 11 6 0 10 -2 10 -4z"/>
<path d="M981 1227 c-12 -31 -24 -33 -75 -12 l-36 15 0 -28 c0 -20 9 -35 30
-50 30 -23 93 -141 105 -199 7 -36 29 -60 40 -44 8 14 -33 323 -45 335 -6 6
-13 -1 -19 -17z"/>
<path d="M775 1189 c-40 -36 -44 -49 -12 -43 18 3 17 1 -5 -8 -37 -16 -56 -60
-67 -154 -8 -79 -6 -99 7 -77 12 19 57 2 57 -21 0 -11 6 -21 14 -24 10 -3 12
0 8 12 -8 22 20 21 45 -1 17 -15 18 -15 18 3 0 36 -12 64 -27 64 -10 0 -13 -6
-9 -16 5 -13 2 -15 -16 -10 -13 3 -32 6 -43 7 l-20 0 20 8 c11 5 26 6 34 3 8
-3 12 -1 8 5 -8 13 20 26 35 17 6 -4 7 11 1 42 -11 65 -8 133 6 147 6 6 11 26
11 44 0 42 -18 43 -65 2z m10 -140 c-4 -5 -22 -9 -41 -9 -46 0 -37 14 10 17
20 1 34 -3 31 -8z"/>
<path d="M2620 1212 c0 -14 11 -21 26 -15 21 8 17 23 -6 23 -11 0 -20 -4 -20
-8z"/>
<path d="M430 1155 c-8 -2 -32 -6 -52 -10 -34 -5 -38 -9 -38 -36 0 -54 21
-119 39 -119 12 0 13 -2 3 -9 -11 -6 -11 -17 -1 -56 l12 -47 38 5 c22 3 39 1
39 -4 0 -5 -5 -9 -12 -9 -6 0 -9 -2 -7 -4 3 -3 22 -1 44 4 27 6 44 5 54 -3 12
-10 13 -9 7 8 -5 11 -15 46 -23 78 -13 46 -20 57 -37 58 -17 1 -17 2 -3 6 21
6 21 12 1 85 -17 58 -21 62 -64 53z m10 -175 c0 -5 -8 -10 -17 -10 -15 0 -16
2 -3 10 19 12 20 12 20 0z m80 -29 c0 -9 -47 -21 -83 -21 -20 0 -20 0 -1 15
21 16 84 21 84 6z"/>
<path d="M4980 1140 c0 -11 5 -20 10 -20 6 0 10 -5 10 -11 0 -6 -7 -9 -15 -5
-11 4 -15 -1 -15 -17 0 -12 -3 -32 -6 -44 -6 -20 -3 -23 23 -23 16 0 32 2 34
5 3 2 1 34 -5 70 -6 43 -14 65 -23 65 -7 0 -13 -9 -13 -20z m30 -70 c0 -5 -4
-10 -10 -10 -5 0 -10 5 -10 10 0 6 5 10 10 10 6 0 10 -4 10 -10z"/>
<path d="M1787 1083 c-4 -3 -7 -25 -7 -47 0 -23 -7 -54 -15 -70 -18 -35 -12
-80 16 -109 10 -11 24 -38 32 -60 16 -49 37 -61 37 -20 0 15 -9 91 -20 168
-11 77 -20 141 -20 142 0 6 -17 3 -23 -4z"/>
<path d="M4100 1002 c0 -15 28 -35 40 -27 5 3 10 2 10 -4 0 -12 23 -9 30 4 3
6 -8 12 -25 13 -16 2 -36 8 -42 14 -9 7 -13 7 -13 0z"/>
<path d="M3796 984 c-9 -24 -7 -56 3 -49 5 3 12 1 15 -4 4 -5 -2 -12 -11 -14
-14 -4 -13 -5 5 -6 12 0 22 -5 22 -10 0 -11 -29 -23 -41 -16 -4 3 -15 -9 -22
-27 -8 -18 -24 -42 -36 -52 -25 -22 -27 -36 -6 -36 8 0 15 -4 15 -10 0 -5 -8
-10 -17 -10 -12 0 -14 -3 -6 -11 8 -8 31 -8 75 -3 62 9 63 9 60 39 -14 156
-40 252 -56 209z m44 -162 c0 -4 -18 -9 -41 -11 -26 -1 -38 2 -34 9 7 12 75
14 75 2z"/>
<path d="M4974 991 c-16 -3 -42 -15 -58 -26 -23 -17 -26 -26 -20 -49 l7 -27
66 7 c36 3 68 8 70 10 9 8 -11 94 -22 93 -7 -1 -26 -4 -43 -8z"/>
<path d="M3939 939 c2 -35 6 -47 12 -38 8 13 9 12 9 -16 0 -3 -3 -5 -7 -4 -10
1 -46 -89 -40 -104 4 -12 24 -14 100 -9 35 3 36 33 2 73 -14 17 -30 55 -37 89
-8 42 -17 60 -28 60 -12 0 -14 -10 -11 -51z"/>
<path d="M4139 923 c10 -21 28 -59 40 -85 l21 -46 42 5 c24 3 44 7 46 8 8 6
-13 125 -22 124 -24 -4 -116 14 -116 22 0 5 -7 9 -15 9 -13 0 -13 -6 4 -37z"/>
<path d="M341 918 c-1 -21 4 -38 9 -38 11 0 11 14 0 50 -7 22 -8 21 -9 -12z"/>
<path d="M710 880 c23 -7 23 -8 3 -9 -12 -1 -25 -6 -29 -13 -5 -8 0 -9 17 -5
13 4 29 7 36 7 7 0 10 7 7 15 -4 9 -18 15 -33 14 l-26 -1 25 -8z"/>
<path d="M5565 880 c-22 -4 -44 -5 -49 -3 -5 3 -41 -2 -80 -11 -39 -9 -127
-25 -196 -35 -69 -11 -113 -19 -97 -20 34 -1 35 -17 2 -25 -29 -7 -48 0 -40
15 4 5 -7 9 -24 9 -21 0 -32 -6 -36 -20 -3 -11 -14 -20 -23 -20 -15 0 -15 2
-2 10 10 7 11 10 2 10 -7 0 -15 -7 -18 -15 -4 -11 -21 -15 -55 -15 -37 0 -49
4 -49 15 0 17 -16 20 -25 4 -4 -6 -13 -8 -20 -5 -7 2 -109 -9 -227 -25 -117
-16 -256 -34 -308 -40 -52 -6 -97 -14 -100 -18 -3 -3 -34 -7 -69 -9 -36 -1
-68 -7 -71 -12 -4 -6 -14 -8 -23 -4 -16 6 -326 -31 -357 -43 -14 -5 -26 -6
-113 -11 -43 -2 -61 -27 -33 -47 13 -10 27 -10 53 -3 20 5 48 7 62 5 32 -7
242 19 291 35 19 7 58 11 86 9 36 -1 55 3 63 13 10 11 18 13 31 6 24 -13 33
-13 25 0 -3 6 -1 10 4 10 6 0 11 7 11 16 0 12 5 15 23 9 21 -7 84 -16 118 -16
9 0 51 4 93 10 43 6 81 11 86 11 5 0 7 8 3 18 -5 15 -4 16 8 1 13 -15 27 -15
172 5 86 11 157 24 157 28 0 4 -6 8 -14 8 -8 0 -18 5 -22 11 -7 12 13 29 35
29 11 0 11 -3 1 -15 -10 -12 -8 -16 15 -25 34 -13 55 -13 55 1 0 7 11 8 29 4
20 -4 38 -1 54 9 13 9 27 13 31 9 4 -4 24 -6 44 -5 89 7 342 44 392 58 65 19
150 60 150 74 0 6 -1 9 -2 9 -2 -1 -21 -5 -43 -9z m-475 -90 c0 -5 -5 -10 -11
-10 -5 0 -7 5 -4 10 3 6 8 10 11 10 2 0 4 -4 4 -10z"/>
<path d="M410 831 l0 -33 43 6 c23 3 47 7 52 8 6 1 23 -2 38 -6 23 -5 27 -3
27 14 0 13 -7 20 -20 20 -11 0 -20 -4 -20 -9 0 -5 -9 -7 -20 -4 -11 3 -17 10
-14 15 4 6 -8 7 -31 2 -27 -5 -40 -3 -46 7 -6 10 -9 4 -9 -20z"/>
<path d="M2380 849 c0 -37 34 -275 40 -279 4 -3 10 -12 13 -20 4 -11 7 -9 13
8 7 25 13 25 82 3 31 -9 33 -9 30 12 -2 18 -9 21 -30 19 -21 -3 -28 1 -29 15
0 16 -1 16 -7 2 -6 -15 -9 -15 -20 -3 -11 12 -8 15 18 20 31 7 31 7 12 28 -27
29 -52 81 -72 146 -10 35 -22 56 -33 58 -9 2 -17 -2 -17 -9z m45 -159 c3 -5 1
-10 -4 -10 -6 0 -11 5 -11 10 0 6 2 10 4 10 3 0 8 -4 11 -10z"/>
<path d="M348 843 c7 -3 16 -2 19 1 4 3 -2 6 -13 5 -11 0 -14 -3 -6 -6z"/>
<path d="M702 838 c-17 -17 -15 -38 3 -32 8 4 13 10 10 14 -3 5 0 10 7 12 8 3
8 7 2 11 -6 3 -16 1 -22 -5z"/>
<path d="M740 840 c0 -6 5 -8 10 -5 6 4 17 2 25 -5 15 -12 64 -9 68 6 1 5 -22
10 -50 12 -34 2 -53 -1 -53 -8z"/>
<path d="M335 820 c-3 -5 3 -10 14 -10 12 0 21 5 21 10 0 6 -6 10 -14 10 -8 0
-18 -4 -21 -10z"/>
<path d="M1980 776 c0 -54 11 -96 26 -96 8 0 14 -4 14 -10 0 -5 -6 -10 -14
-10 -11 0 -11 -13 0 -81 7 -45 15 -83 18 -86 3 -3 14 4 24 17 18 22 19 22 50
6 17 -9 38 -16 47 -16 22 0 19 27 -5 40 -11 6 -20 16 -20 22 0 7 5 6 15 -2 9
-8 15 -8 15 -2 0 6 -8 13 -19 17 -26 8 -70 78 -96 150 -11 33 -24 66 -28 73
-15 22 -27 12 -27 -22z"/>
<path d="M750 788 c0 -4 7 -14 16 -22 12 -12 12 -16 2 -17 -7 -1 3 -5 22 -9
l35 -7 -33 -2 c-19 0 -35 5 -38 12 -3 8 -15 13 -27 12 -17 -1 -23 -9 -25 -34
-4 -43 44 -211 67 -232 28 -27 58 -39 78 -33 16 5 16 4 -1 -10 -19 -16 -19
-16 3 -16 17 0 21 -4 16 -19 -5 -16 1 -20 35 -26 23 -4 44 -4 47 -1 3 3 -6 19
-20 36 -15 17 -29 47 -32 68 -11 66 -15 82 -23 81 -33 -5 -48 36 -17 47 8 4
15 10 15 16 0 5 -4 7 -9 3 -16 -9 -24 16 -8 28 10 8 13 25 10 54 -5 40 -7 42
-31 36 -17 -4 -23 -2 -18 6 5 7 -1 11 -16 11 -13 0 -29 5 -36 12 -7 7 -12 9
-12 6z m15 -148 c-3 -5 -11 -10 -16 -10 -6 0 -7 5 -4 10 3 6 11 10 16 10 6 0
7 -4 4 -10z m65 -154 c0 -3 -4 -8 -10 -11 -5 -3 -10 -1 -10 4 0 6 5 11 10 11
6 0 10 -2 10 -4z"/>
<path d="M337 773 c-10 -9 -8 -43 2 -43 5 0 14 7 21 15 17 21 -4 48 -23 28z"/>
<path d="M565 750 c-3 -5 -19 -10 -36 -10 -16 0 -29 -5 -29 -11 0 -13 -42 -1
-52 15 -17 26 -16 -5 2 -74 11 -41 20 -78 20 -81 0 -4 -16 -10 -35 -13 -27 -5
-35 -12 -35 -28 0 -18 4 -20 40 -14 25 4 40 2 40 -4 0 -5 24 -10 54 -10 44 0
55 -3 59 -19 3 -15 11 -18 33 -13 16 3 22 7 14 9 -43 12 -45 15 -22 24 28 11
31 44 2 36 -24 -6 -26 8 -3 21 16 9 15 16 -7 96 -24 83 -32 97 -45 76z m-20
-49 c-6 -6 -25 -6 -45 -1 l-35 8 45 1 c27 1 40 -3 35 -8z m42 3 c-3 -3 -12 -4
-19 -1 -8 3 -5 6 6 6 11 1 17 -2 13 -5z m-52 -104 c3 -5 -2 -10 -12 -10 -10 0
-26 -9 -36 -20 -10 -12 -22 -18 -29 -14 -7 4 -4 10 8 17 11 6 25 17 32 24 16
16 29 17 37 3z m30 -50 c3 -5 1 -10 -4 -10 -6 0 -11 5 -11 10 0 6 2 10 4 10 3
0 8 -4 11 -10z"/>
<path d="M1896 738 c-3 -7 -7 -34 -10 -61 -6 -54 -30 -106 -58 -125 -27 -20
-22 -78 7 -75 107 10 115 13 115 45 0 17 -5 61 -10 97 -6 36 -13 81 -16 99 -5
32 -21 43 -28 20z m-46 -233 c0 -8 -4 -15 -10 -15 -5 0 -10 7 -10 15 0 8 5 15
10 15 6 0 10 -7 10 -15z"/>
<path d="M348 722 c-16 -3 -18 -16 -18 -103 0 -79 3 -99 14 -99 16 0 30 95 24
165 -2 32 -7 40 -20 37z"/>
<path d="M1486 669 c-3 -8 -7 -33 -10 -57 -3 -23 -10 -51 -16 -62 -11 -21 2
-36 22 -24 8 5 9 1 4 -12 -6 -15 -5 -17 6 -6 16 16 24 150 10 164 -8 8 -13 7
-16 -3z"/>
<path d="M1067 613 c-4 -3 -7 -22 -7 -42 -1 -20 -8 -54 -16 -76 -16 -44 -26
-95 -18 -95 18 0 43 24 53 51 9 26 8 30 -4 25 -8 -3 -17 -1 -20 4 -4 6 3 10
13 10 21 0 32 25 32 72 0 46 -15 70 -33 51z m3 -167 c0 -11 -19 -15 -25 -6 -3
5 1 10 9 10 9 0 16 -2 16 -4z"/>
<path d="M3430 579 c0 -8 -11 -9 -32 -5 -18 4 -103 -3 -190 -15 -123 -17 -155
-25 -151 -36 4 -11 1 -12 -20 -2 -19 8 -47 8 -113 -1 -48 -6 -95 -15 -103 -19
-9 -5 -27 -7 -41 -6 l-24 2 22 -15 c27 -18 29 -36 3 -27 -11 3 -22 1 -26 -5
-3 -5 -18 -11 -33 -11 -15 -1 -20 -3 -12 -5 25 -7 135 10 132 21 -2 5 16 15
40 22 52 15 58 16 58 3 0 -5 -12 -10 -27 -10 -16 0 -35 -5 -43 -11 -11 -8 -5
-9 25 -5 22 3 148 19 280 36 132 17 247 34 255 37 8 4 19 5 25 4 5 -1 24 0 42
4 l33 6 -29 24 c-30 26 -71 33 -71 14z m-10 -39 c-20 -13 -33 -13 -25 0 3 6
14 10 23 10 15 0 15 -2 2 -10z m-157 -27 c-7 -2 -21 -2 -30 0 -10 3 -4 5 12 5
17 0 24 -2 18 -5z m-438 -53 c3 -5 1 -10 -4 -10 -6 0 -11 5 -11 10 0 6 2 10 4
10 3 0 8 -4 11 -10z"/>
<path d="M1433 490 c-3 -11 -12 -20 -19 -20 -9 0 -14 -12 -14 -35 0 -35 16
-47 26 -20 4 8 12 15 19 15 7 0 16 7 19 16 9 24 7 29 -6 16 -7 -7 -19 -12 -27
-12 -11 0 -10 4 4 20 10 11 14 20 9 20 -5 0 -2 5 6 10 11 7 12 10 2 10 -8 0
-16 -9 -19 -20z"/>
<path d="M330 465 c0 -9 6 -12 15 -9 8 4 15 10 15 15 0 5 -7 9 -15 9 -8 0 -15
-7 -15 -15z"/>
<path d="M343 432 c-6 -4 -15 -24 -21 -44 -10 -35 -9 -37 8 -28 10 5 25 7 34
4 13 -5 13 0 4 33 -12 45 -11 44 -25 35z"/>
<path d="M615 429 c-82 -11 -90 -15 -104 -63 -7 -25 -10 -50 -6 -55 11 -18 75
-13 83 7 9 22 32 27 32 7 0 -19 29 -20 36 -2 3 9 16 12 34 9 25 -3 30 -1 30
15 0 11 -9 28 -20 38 -11 10 -20 24 -20 31 0 19 -10 21 -65 13z m-65 -63 c0
-2 -7 -7 -16 -10 -8 -3 -12 -2 -9 4 6 10 25 14 25 6z m28 -44 c2 -8 -8 -12
-29 -12 -31 0 -32 1 -13 15 21 16 36 15 42 -3z"/>
<path d="M803 417 c2 -7 14 -14 26 -15 28 -4 20 13 -9 21 -14 3 -20 1 -17 -6z"/>
<path d="M997 423 c-4 -3 -7 -11 -7 -17 0 -6 5 -5 12 2 6 6 9 14 7 17 -3 3 -9
2 -12 -2z"/>
<path d="M2050 400 c-12 -8 -10 -10 8 -10 13 0 20 4 17 10 -7 12 -6 12 -25 0z"/>
<path d="M869 357 c13 -13 81 -21 81 -9 0 5 -20 12 -45 14 -24 1 -41 0 -36 -5z"/>
<path d="M303 320 c-27 -11 -29 -23 -8 -40 23 -19 119 -1 123 23 3 15 0 18
-16 13 -39 -13 -62 -15 -62 -6 0 5 8 11 18 13 11 3 8 5 -8 5 -14 0 -35 -3 -47
-8z"/>
</g>
</svg>
