<svg xmlns="http://www.w3.org/2000/svg" xmlns:xlink="http://www.w3.org/1999/xlink">

  <symbol id="user" viewBox="0 0 32 32">
    <path d="m14.545 0a8.7273 8 0 00-8.7273 8 8.7273 8 0 008.7273 8 8.7273 8 0 008.7273-8 8.7273 8 0 00-8.7273-8m0 2.6667a5.8182 5.3333 0 015.8182 5.3333 5.8182 5.3333 0 01-5.8182 5.3333 5.8182 5.3333 0 01-5.8182-5.3333 5.8182 5.3333 0 015.8182-5.3333m0 16a14.545 12 0 00-14.545 12 14.545 12 0 00.09659 1.3333h14.449v-2.6667h-11.505a11.636 9.3333 0 0111.505-8zm8.7273 0v5.3333h-5.8182v2.6667h5.8182v5.3333h2.9091v-5.3333h5.8182v-2.6667h-5.8182v-5.3333z"/>
  </symbol>

  <symbol id="add" viewBox="0 0 24 24">
      <path d="M0 0h24v24H0V0z" fill="none"/><path d="M13 11h-2v3H8v2h3v3h2v-3h3v-2h-3zm1-9H6c-1.1 0-2 .9-2 2v16c0 1.1.89 2 1.99 2H18c1.1 0 2-.9 2-2V8l-6-6zm4 18H6V4h7v5h5v11z"/>
  </symbol>
  
  <symbol id="backup" viewBox="0 0 32 32">
   <path d="m21.406 2.0702c.59857.18998 1.0334.65065 1.2197 1.2958.07914.25904.09029.69669.09029 2.8042v2.4933l-.46857-.3109c-.254-.16696-.62114-.39162-.81886-.48952l-.35-.17862v-3.9733h-17.464l.033718 2.1708c.022568 1.192.039431 3.7431.039431 5.672v3.5012h15.951l-.58143.3109c-.31628.17279-.75086.43766-.96.58742-.52514.38579-1.406 1.2669-1.7674 1.7795l-.30486.426-.60972.0059h-.60428v.97904c0 .93854.0057.97904.11286.97904.13543 0 .13543-.01719 0 .51836-.062.23602-.11286.48952-.11286.55858v.13229h-3.6589c-3.3766 0-3.6646-.01166-3.7717-.10373-.31057-.25348-.33314-.62762-.056572-.90967l.192-.19581h2.3263v-1.9523l-3.2354-.01719-3.2297-.017191-.32171-.16113c-.40658-.20166-.79058-.63348-.94858-1.0537-.11286-.31673-.11286-.3686-.10171-6.9503l.016857-6.6336.15257-.29954c.19771-.37996.48-.66784.85257-.86948l.29371-.1556 8.9211-.011656c7.3349-.00609 8.9666.00553 9.1643.068766z" style="stroke-width:.0028853"/><path d="m18.086 7.8343c.07915.011372.35571.051867.62114.08625 1.3211.17862 2.586.80042 3.5514 1.7448.89771.88667 1.4286 1.9289 1.7277 3.403l.12971.63346.85257-.01719.85829-.01719-.29343.36277c-.158.20164-.65486.93271-1.1123 1.6297-.90914 1.405-1.5357 2.2862-1.598 2.2632-.05085-.01719-3.1563-4.1749-3.1563-4.2209 0-.01719.40657-.02884.90343-.02884.90342 0 .90342 0 .90342-.13229 0-.26487-.24286-1.0021-.46857-1.4397-.81886-1.572-2.3603-2.695-4.3308-3.1557-.83571-.20163-3.0094-.20746-3.6023-.011355-.16371.051867.16943-.20163.49686-.37996.81886-.43765 1.9931-.69086 3.416-.72554.52514-.011657 1.022-.011657 1.1011.00553z" style="stroke-width:.0028853"/><path d="m25.595 16.115c1.8014.76604 3.2017 2.1941 3.9017 3.9791.60971 1.5548.66628 3.3515.16372 4.929-1.022 3.1787-4.1049 5.2574-7.3346 4.9465-1.8069-.17279-3.3483-.94437-4.5734-2.2803-1.2423-1.359-1.8746-3.0289-1.8746-4.9406 0-1.5088.41228-2.8503 1.2591-4.1058.36714-.55275 1.1857-1.3992 1.694-1.7678.35-.2535 1.4171-.84063 1.5189-.84063.02829 0 .23714.25904.47429.57577.38971.52419.46314.69086.30486.69086-.16371 0-.97686.40298-1.406.69669-.53628.36277-1.2083 1.0481-1.5414 1.5662-.30486.4665-.64371 1.2209-.78485 1.7506-.10171.37996-.12429.61044-.12429 1.4569-.0057 1.1976.08457 1.6297.53086 2.5624.87514 1.8427 2.6311 3.0863 4.5906 3.2477 2.8117.23077 5.2566-1.514 6.0074-4.2952.13543-.50088.15228-.66784.158-1.4569 0-1.0192-.08457-1.5088-.40657-2.2975-.61543-1.526-1.8634-2.7238-3.3651-3.2305l-.384-.12675.10714-.17279c.26572-.426.69486-1.0248.73428-1.0248.02257.0059.18086.06322.35.13812z" style="stroke-width:.0028853"/><path d="m24.382 18.015c.82428.27069 1.4454.6795 2.0666 1.3418.79057.84646 1.2366 1.8427 1.3326 2.977l.03373.43736h-.75086v-.20164c0-.3109-.16371-1.0539-.31628-1.4339-.50257-1.2611-1.6543-2.2285-2.97-2.5108l-.32743-.06322.226-.34558c.12971-.18415.24828-.33975.27114-.33975.02228.0061.21428.06382.43457.1387z" style="stroke-width:.0028853"/><path d="m23.777 19.311c.65486.16696 1.1066.43183 1.6263.95573.35.35694.50828.57023.66629.90415.20886.44348.36714 1.0595.37257 1.4109v.18998h-.66057l-.03399-.30508c-.07915-.68533-.43486-1.382-.93172-1.831-.35572-.32256-.988-.62181-1.4737-.70252l-.40086-.06322v-.66784l.20886.0059c.11857-.000288.40086.05128.62686.10315z" style="stroke-width:.0028853"/><path d="m23.456 20.831c1.1011.31673 1.6883 1.4397 1.3494 2.5799-.10714.36277-.16943.4665-.46857.77158-.47428.48369-.83572.62181-1.5131.59296-.384-.0172-.54771-.0577-.79629-.17862-.40657-.20164-.75657-.5644-.94285-.96155-.12429-.2707-.14686-.39715-.14686-.86365 0-.48952.01686-.5816.16943-.88114.412-.8348 1.468-1.3127 2.3489-1.0595zm-.90914 1.1807c-.10714.05187-.254.18998-.32743.29954-.11286.16696-.13.2535-.11286.53556.02257.29371.05085.36277.22572.54138.17514.17862.254.213.51943.23602.37829.02885.64943-.11509.79628-.43182.11857-.25321.09029-.65648-.06771-.87531-.28257-.38025-.66086-.49535-1.0334-.30536z" style="stroke-width:.0028853"/><path d="m20.118 22.962c0 .57023.27657 1.2611.70571 1.7564.44029.51254 1.2817.93271 1.8689.93271h.24829v.69116h-.27114c-.58714 0-1.4794-.35694-2.0046-.80042-.768-.65065-1.276-1.6699-1.2817-2.5566v-.27069h.73428v.24738z" style="stroke-width:.0028853"/><path d="m18.729 22.783c.01686.04021.03943.25904.05657.47786.15257 1.9289 1.7843 3.5816 3.6929 3.7603l.43486.04021v.74302l-.31057-.01719c-.74543-.03439-1.6826-.34558-2.3151-.76575-1.3269-.88667-2.2586-2.5222-2.2586-3.9674v-.33975h.33886c.22572-.000288.35.02273.36114.06877z" style="stroke-width:.0028853"/>
  </symbol>
  
  <symbol id="restore" viewBox="0 0 32 32">
    <path d="m22.266 1.1459c4.4701.33812 8.0357 1.757 8.8288 3.5073.42603.94144.07862 1.8829-.99627 2.7117-3.6443 2.8178-13.397 3.2421-18.477.80894-2.471-1.1868-3.1723-2.7912-1.8484-4.2167 1.3371-1.4321 4.3325-2.4598 8.134-2.7912.71443-.059691 3.6443-.072956 4.3587-.019897z"/>
    <path d="m31.298 10.09-.01963 2.9106-.17039.36468c-.53102 1.1204-2.0647 2.0818-4.3981 2.7448-1.7631.51049-3.5525.75579-5.8531.81548-5.6171.13928-10.553-1.3724-11.555-3.5471l-.17694-.37804-.019691-2.9106-.019691-2.9172.38672.3712c1.4223 1.3791 4.0637 2.3205 7.6621 2.7448 1.2191.14591 4.5619.16581 5.7876.03919 2.5103-.26509 4.8306-.8618 6.3643-1.6376.54404-.27837 1.2126-.74255 1.6386-1.147l.39319-.36466zm-3.2313.8819c-.71444.33152-.94384 1.1005-.52435 1.7371.39319.60334 1.2388.70273 1.7631.2054.76687-.72936.24909-2.0354-.81274-2.062-.09176 0-.2818.05326-.42603.11858zm-17.232-.01909c-.2884.29172-.0062.61661.95695 1.1204 1.6648.87517 4.7323 1.4918 7.4065 1.4918.53743 0 .58342-.0067.68166-.16581.09831-.15254.09831-.17897.0063-.31835-.09831-.15256-.15077-.15909-1.1011-.20561-3.1723-.14581-5.8859-.78232-7.2361-1.7105-.50466-.34478-.5702-.36468-.71444-.21224zm14.262.85527c-.48503.2054-.7472.59671-.7472 1.094 0 .35132.11801.61661.38672.87517.56366.54365 1.4551.36468 1.8287-.35795.11801-.23203.11801-.80211 0-1.0343-.12447-.2454-.35395-.4508-.6292-.57028-.29494-.13225-.53743-.13225-.83897-.0067z"/>
    <path d="m28.88 11.747c.18356.23213.17039.45733-.02603.6564-.1967.2054-.43257.21214-.66197.01306-.36049-.31835-.16385-.84211.30809-.84211.19002 0 .27532.03919.38011.17234z" style="stroke-width:.0065922"/>
    <path d="m25.72 12.437c.3081.12541.37364.57682.118.82884-.08524.09245-.23594.16581-.32772.16581-.2294 0-.49158-.27836-.49158-.51702 0-.36468.36703-.61661.70135-.47743z" style="stroke-width:.0065922"/>
    <path d="m31.311 17.058c0 2.9835-.02603 3.2288-.38672 3.7526-.62266.90833-1.7959 1.631-3.6115 2.2409-2.3268.77568-5.4205 1.1405-8.3897.98792-1.2126-.06029-2.2809-.15908-2.3399-.21877-.0063-.01306-.05274-.33152-.08524-.71609-.07863-.75579-.24909-1.4984-.49158-2.1614-.09177-.23866-.16386-.43764-.16386-.44417 0-.0067.27532.02714.60297.07235.54404.07235 2.5038.21224 3.0478.21877.22286 0 .4785-.19224.4785-.35141 0-.04622-.03938-.14591-.09177-.21224-.08524-.11858-.21632-.13224-1.3306-.17897-1.0815-.03919-2.5103-.1857-2.9495-.29846-.09177-.0191-.27532-.2255-.45873-.51049-.3671-.55701-1.3305-1.5912-1.8811-2.0089-1.088-.82229-2.5562-1.4388-3.795-1.5847l-.37364-.04623v-1.2529l.48504.45733c1.5468 1.4586 4.5357 2.4266 8.4552 2.7448 1.2126.09245 4.3456.03919 5.414-.09948 3.5984-.46416 6.0039-1.3392 7.4524-2.7183l.41288-.38458zm-3.3755 1.1669c-.47849.27183-.70787.81548-.56366 1.3128.17039.56355.77998.98792 1.2978.89507.93728-.17234 1.3306-1.2929.68821-1.989-.3671-.39121-.95695-.48406-1.4223-.21877zm-2.9823.84211c-1.0553.54365-.64236 2.2078.55058 2.2078.65543 0 1.0946-.41774 1.1405-1.0808.03938-.50386-.1114-.81548-.50466-1.0675-.36056-.23866-.8062-.25856-1.1864-.06029z"/>
    <path d="m28.853 18.901c.1967.19887.20977.42437.02603.6564-.24909.31835-.8062.19224-.84552-.19224-.02603-.25856 0-.35795.14425-.49733.1967-.17897.47849-.17244.67512.03317z"/>
    <path d="m25.858 19.75c.31464.33152.09832.84211-.34734.84211-.30149 0-.49158-.19224-.49158-.49059 0-.43764.55058-.66304.83897-.35131z"/>
    <path d="m9.1835 16.282c1.7959.2255 3.2117.9415 4.4963 2.2542 1.0159 1.0408 1.6058 2.0885 1.9794 3.5205.13109.48406.14424.72283.14424 1.8166 0 1.1537-.01336 1.3128-.17694 1.9161-.58342 2.1746-2.0057 3.925-4.0047 4.9128-1.0225.51049-1.7959.70273-2.9757.74252-1.7435.06632-3.0675-.29846-4.5029-1.2398-.70792-.46406-1.737-1.5381-2.1892-2.2807-1.8287-2.9902-1.4551-6.7892.91762-9.2821.85208-.90833 1.6976-1.4785 2.7725-1.9028 1.0094-.39774 2.5103-.59018 3.5394-.45753zm1.3174 3.1095c0 .21877-.01967.26509-.09831.23213-.94384-.40447-1.8484-.55702-2.6611-.43764-1.1077.16581-1.8746.55702-2.6808 1.3724-.89795.9018-1.3437 1.9956-1.3437 3.2819 0 .72283.15078 1.4454.42603 1.989.18355.36468.27525.4309.51781.37121.24909-.06028.25563-.2454.039381-.79568-.26871-.66957-.34741-1.1537-.30802-1.8299.098315-1.8498 1.4616-3.3681 3.2969-3.6929.44565-.07235.67512-.07939 1.0684-.02714.58989.07939 1.1011.2255 1.2847.36468.13109.09949.13109.09949 0 .10632-.37364.0067-.56366.43764-.28179.62314.15732.09949.34734.07235 1.2453-.16581.41949-.11315.43257-.25856.1114-1.4719-.13109-.49733-.61605-.43764-.61605.07939zm1.3305 2.2277c-.05907.13224-.045.2255.10486.56355.35395.79558.44565 1.6376.26871 2.4863-.30149 1.4387-1.4682 2.6719-2.8971 3.0432-.55058.14591-1.4551.13927-2.0122-.01908-.45226-.1254-.70129-.27183-.46534-.27183.29494 0 .47849-.41774.25563-.60334-.085235-.06633-.19002-.07235-.53743-.0068-1.1208.19888-1.1732.25858-.98316 1.1072.15078.64314.25563.82884.47849.82884.22286 0 .31464-.15908.27532-.45753l-.033053-.25866.28179.1254c.79965.35795 2.0057.45733 2.8512.23213 1.2716-.33144 2.353-1.1735 2.9757-2.3204.66197-1.2066.74065-2.831.1967-4.0775-.20978-.4707-.26871-.53702-.49157-.53702-.14424 0-.20978.04622-.26872.16581z" />
    <path d="m31.298 24.338-.01963 2.9172-.17039.36468c-.33426.70926-.9635 1.2663-2.0712 1.8431-1.5075.77568-3.31 1.2663-5.8531 1.5846-1.1798.14591-4.5357.1658-5.7023.02715-1.3503-.15256-2.5694-.37122-3.5788-.64315l-.40634-.10632.49158-.4709c.52435-.51049 1.1405-1.2929 1.442-1.8365l.18355-.34478.32772.03919c1.1208.13927 2.3334.23866 3.0281.23866.78653 0 .8062-.0068.91107-.1658.09831-.15255.09831-.17897 0-.33152-.09831-.15255-.14424-.1658-.64889-.1658-.65543 0-2.1302-.10632-2.7987-.20542l-.49812-.07235.19002-.55702c.09831-.31162.23594-.87507.29494-1.2531.09177-.55018.13109-.68956.20978-.66957.75376.21877 4.8306.26509 6.4692.08542 2.6021-.29172 4.6209-.82874 6.1939-1.6509.72754-.37121 1.5862-.99445 1.8549-1.3327l.16385-.21224zm-3.0806.96129c-.32772.09245-.63581.36468-.77997.6961-.15732.33805-.15078.59018 0 .93476.32118.70926 1.2453.91496 1.8221.40447.13108-.11315.27533-.30509.32118-.42437.26871-.64314-.09176-1.4122-.7472-1.6111-.24902-.07235-.34087-.07235-.61605 0zm-3.1199.89507c-.48503.21213-.74064.57682-.7472 1.094-.0063.8817.8914 1.452 1.6779 1.0609.70787-.34478.85862-1.3658.28841-1.9028-.34734-.33152-.79964-.42437-1.2191-.25194z"/>
    <path d="m28.88 26.135c.18356.23213.17039.45733-.02603.6564-.47195.48406-1.1405-.19224-.70136-.71599.15732-.18571.56366-.15255.72754.06028z"/>
    <path d="m25.72 26.824c.32118.13223.38672.6365.1114.85527-.0983.07939-.24248.13927-.32118.13927-.2294 0-.49158-.24541-.49158-.46406 0-.27836.05907-.39121.26871-.49733.20977-.11315.2294-.11315.43257-.03317z"/>
    </symbol>
    
    <symbol id="restbase" viewBox="0 0 32 32">
    <path
     d="M 14.276603,1.3519045 C 11.669846,1.6720454 8.8540601,2.8294784 7.0219542,4.3193655 6.6653694,4.6148802 6.2964887,4.8980819 6.2104168,4.9719604 6.0997528,5.0581523 5.8538325,4.8857688 5.3128077,4.380931 4.9070393,3.9992245 4.525863,3.6790834 4.4520868,3.6790834 c -0.2705122,0 -0.5041363,0.6649081 -1.2418972,3.6693082 C 2.5093169,10.180409 2.4601328,10.488237 2.6322769,10.660619 2.804421,10.833004 3.1118212,10.783762 5.9399045,10.081904 8.952428,9.3431171 9.6041156,9.1091681 9.6041156,8.8382785 c 0,-0.073885 -0.3319909,-0.4802106 -0.7500555,-0.9111691 L 8.1040027,7.1513822 8.829467,6.5849788 C 10.477133,5.2797885 12.899448,4.3439915 14.989771,4.2085476 16.391516,4.1223564 16.772692,3.86378 16.293148,3.3712555 15.813605,2.8910439 12.284648,3.5805784 10.403359,4.5163752 8.8786516,5.2674754 7.0219542,6.70811 7.0219542,7.1267558 c 0,0.1231308 0.2582163,0.4802115 0.5779116,0.7880397 C 7.9195627,8.2103103 8.1531873,8.5058252 8.1040027,8.542764 7.9933413,8.6535748 3.6897341,9.7371359 3.6159581,9.6755701 3.5544776,9.6140062 4.6365271,5.2921016 4.7348952,5.1812835 4.7840794,5.1443439 5.0545916,5.341354 5.3373999,5.6245557 5.9276086,6.2032723 6.2596009,6.2648381 6.6038893,5.870818 7.0342498,5.3906064 8.681916,4.2331737 9.6655966,3.7160229 14.25201,1.3519045 19.969657,1.7705506 24.039635,4.7749507 c 3.639621,2.6719457 5.729946,6.7475863 5.729946,11.1679953 0,1.157435 0.02459,1.280566 0.258215,1.403697 0.614799,0.332454 0.823834,-0.566403 0.614799,-2.635008 C 29.966316,8.0379258 25.330718,2.8664179 18.813831,1.5366012 17.621119,1.2903388 15.444723,1.2041471 14.276603,1.3519045 Z
     M 1.5010436,14.68701 c -0.3811761,0.455584 -0.2582161,2.967459 0.2336243,4.900619 1.3402655,5.220762 5.2995819,9.234839 10.5130931,10.638532 4.303603,1.157433 8.890017,0.27089 12.541934,-2.41337 0.344288,-0.246262 0.688576,-0.541778 0.786943,-0.652594 0.08606,-0.123147 0.22133,-0.209325 0.295104,-0.209325 0.07375,0 0.442657,0.307831 0.83613,0.677221 0.393472,0.369393 0.762354,0.677224 0.836129,0.677224 0.270515,0 0.504137,-0.664908 1.241897,-3.669309 0.700874,-2.832017 0.750056,-3.139847 0.577913,-3.312228 -0.172144,-0.172385 -0.479544,-0.123147 -3.307628,0.578717 -3.012523,0.738785 -3.664213,0.972734 -3.664213,1.243624 0,0.07387 0.331993,0.480211 0.750058,0.911171 l 0.750058,0.775728 -0.725466,0.5664 c -1.647665,1.305191 -4.069982,2.240989 -6.160303,2.376432 -1.401745,0.0862 -1.78292,0.344769 -1.303378,0.837292 0.381179,0.369394 2.815788,0.02462 4.758558,-0.677224 1.807515,-0.664907 4.512637,-2.49956 4.512637,-3.078275 0,-0.123148 -0.258216,-0.480215 -0.577915,-0.788041 -0.319694,-0.295515 -0.553319,-0.591029 -0.504133,-0.627967 0.110652,-0.110801 4.414268,-1.194372 4.488043,-1.132808 0.04919,0.06156 -0.885311,3.927882 -1.04516,4.334217 -0.09836,0.209321 -0.147553,0.197008 -0.639394,-0.283202 C 26.068481,25.7565 25.748781,25.719562 25.330718,26.162833 24.408516,27.147882 22.182939,28.4777 20.473793,29.056415 11.534592,32.097754 2.2265085,25.460984 2.2265085,16.041452 c 0,-1.132806 -0.024593,-1.280564 -0.2336243,-1.403695 -0.3074003,-0.16006 -0.3196962,-0.16006 -0.4918406,0.04926 Z"
     id="path1"
     style="fill:#000000;fill-opacity:1;stroke:#000000;stroke-width:0.55;stroke-miterlimit:4;stroke-dasharray:none;stroke-opacity:1" />
    <path
     d="M 13.63721,9.3431171 c -1.647666,0.2832011 -3.012525,0.9481099 -3.344518,1.6376439 -0.295103,0.640283 -0.282806,3.558493 0.0246,4.112579 0.491839,0.911174 2.028841,1.539142 4.315898,1.760777 2.397726,0.246264 5.299586,-0.233948 6.406224,-1.046614 0.750056,-0.554088 0.860723,-0.898857 0.860723,-2.745824 0,-1.908533 -0.122961,-2.29024 -0.860723,-2.782766 -0.590207,-0.3817056 -1.672256,-0.7634116 -2.717418,-0.9234831 -0.89761,-0.147752 -3.82406,-0.1600772 -4.684782,-0.012342 z m 5.447132,1.0712399 c 1.377155,0.406334 2.041142,0.911171 1.758331,1.366757 -0.590206,0.94811 -4.401971,1.563765 -6.934951,1.108181 -0.442657,-0.07388 -0.995978,-0.147748 -1.229601,-0.147748 -0.393473,-0.01238 -0.43036,0.01238 -0.43036,0.357077 0,0.320142 0.06147,0.381709 0.541024,0.517152 0.307399,0.08619 1.143528,0.221636 1.88129,0.295517 2.06573,0.197008 4.340491,-0.09851 6.037343,-0.812669 0.184439,-0.07388 0.209032,0 0.209032,0.763414 0,0.935799 -0.07375,1.058931 -0.848425,1.45295 -1.72144,0.874231 -6.418519,0.874231 -8.139962,0 -0.848425,-0.430962 -0.848425,-0.418648 -0.848425,-2.290241 0,-1.674582 0,-1.69921 0.319696,-1.945473 0.393473,-0.30783 1.118939,-0.57872 2.139507,-0.812669 1.155826,-0.258573 4.438861,-0.172383 5.545501,0.147752 Z
     M 10.341035,15.733836 c -0.4549537,0.443273 -0.159006,2.462413 0.615644,3.028815 1.106641,0.812665 4.0085,1.292875 6.406224,1.046615 2.914154,-0.283202 4.396692,-1.337956 4.452013,-3.669436 0.0087,-0.365007 -0.111052,-0.808944 -0.344671,-0.808944 -0.233624,0 -0.353475,0.473465 -0.377995,0.854378 -0.11424,1.77473 -0.852079,2.171055 -2.561227,2.528133 -2.569867,0.529465 -6.148008,0.1108 -7.230056,-0.849603 -0.226981,-0.195588 -0.298005,-0.281103 -0.428368,-1.10607 -0.05957,-0.377013 -0.08586,-1.056147 -0.319496,-1.056147 -0.06148,0 -0.113698,-0.07858 -0.212068,0.03226 Z
     M 10.321466,18.62137 c -0.4549546,0.443273 -0.139441,2.530025 0.635213,3.09643 1.106641,0.812663 4.0085,1.292878 6.406224,1.046614 2.914154,-0.283201 4.326544,-0.962295 4.434968,-3.988409 0.01334,-0.369158 -0.206722,-0.780322 -0.440348,-0.780322 -0.233624,0 -0.263852,0.41003 -0.269657,0.791694 -0.03545,2.328789 -0.847695,2.52409 -2.556843,2.88117 -2.569867,0.529464 -6.148008,0.110801 -7.230056,-0.849605 -0.450682,-0.451634 -0.44909,-0.910102 -0.39457,-1.499457 0.03517,-0.380077 -0.124154,-0.797246 -0.357782,-0.797246 -0.06147,0 -0.128777,-0.01174 -0.227149,0.09915 Z"
     id="path10"
     style="fill:#000000;stroke:#000000;stroke-width:0.461421;stroke-miterlimit:4;stroke-dasharray:none;stroke-opacity:1" />
    </symbol>
    
    <symbol id="base" viewBox="0 0 32 32">
    <path
     d="m 21.844637,25.121363 c -0.04623,0.05007 -0.109105,0.07803 -0.174477,0.07803 -0.06537,0 -0.128249,-0.02796 -0.17459,-0.07803 l -2.585577,-2.793444 c -0.07059,-0.07626 -0.09172,-0.190887 -0.05336,-0.290465 0.03827,-0.0997 0.128136,-0.16451 0.227947,-0.16451 h 1.148426 v -3.593476 c 0,-0.147067 0.110294,-0.266472 0.246642,-0.266472 h 2.380971 c 0.136296,0 0.246646,0.119405 0.246646,0.266472 v 3.593414 h 1.148647 c 0.09981,0 0.189771,0.06494 0.227783,0.164511 0.03827,0.09958 0.01714,0.214208 -0.05331,0.290465 z"
     id="path2"
     style="stroke-width:0.0588811" />
    <path
     d="m 27.79665,15.654616 c -1.363843,-1.543436 -3.214467,-2.530271 -5.22146,-2.786829 -0.06899,-0.136132 -0.178129,-0.33495 -0.208377,-0.3884 l -0.08046,-0.145832 c 0.31106,-0.48474 0.468335,-0.988286 0.468335,-1.498299 V 7.8626082 c 0,-0.4391431 -0.119325,-0.8804644 -0.351988,-1.3061461 L 22.37803,6.507633 c 0.08932,-0.2295693 0.132858,-0.4460068 0.132858,-0.6591442 0,-1.2051864 -1.134733,-2.2203961 -3.281122,-2.9360254 -1.828289,-0.6094561 -4.307557,-0.959055 -6.8025,-0.959055 -2.4954624,0 -4.975314,0.3495989 -6.8033338,0.959121 -2.1465882,0.7157604 -3.2811244,1.7311685 -3.2811244,2.9368164 0,0.212214 0.043531,0.4283876 0.1328572,0.6583522 L 2.452588,6.5515832 C 2.218562,6.9837975 2.0999589,7.4249204 2.0999589,7.8626774 v 2.9726476 c 0,0.512653 0.1574001,1.015277 0.4682593,1.496058 l -0.0822,0.146357 c -0.2561818,0.452933 -0.3861201,0.914907 -0.3861201,1.372989 v 2.973242 c 0,0.499125 0.1493659,0.990463 0.444228,1.461347 l -0.058111,0.102739 C 2.229832,18.840931 2.0998937,19.302312 2.0998937,19.759075 v 2.975087 c 0,1.359002 1.0826521,2.610711 3.0485127,3.52496 1.9179909,0.891945 4.5031014,1.38302 7.2788446,1.38302 1.019175,0 2.048126,-0.07251 3.060108,-0.21557 1.603508,1.667687 3.741089,2.584973 6.030241,2.584973 4.658241,0 8.447974,-3.860501 8.447974,-8.605889 6.3e-5,-2.125836 -0.770176,-4.168332 -2.16893,-5.751029 z M 6.0410132,4.3344822 C 7.7228347,3.7660703 9.9909355,3.4530281 12.427451,3.4530281 c 2.435481,0 4.703388,0.3132407 6.386051,0.8819822 1.536143,0.5192515 2.223666,1.1347779 2.223666,1.5144012 0,0.3808765 -0.687523,0.997921 -2.22386,1.5175688 -1.681884,0.5689394 -3.949728,0.8822458 -6.385857,0.8822458 -2.4367746,0 -4.7048754,-0.3133064 -6.3863729,-0.8822458 C 4.5055179,6.8474643 3.8182535,6.230354 3.8182535,5.8494115 3.818124,5.4693268 4.5054533,4.8534701 6.0410132,4.3344822 Z M 3.5742467,8.7597673 v 0 c 1.6745657,1.1801771 5.0705329,1.9287337 8.8532043,1.9287337 3.779889,0 7.176568,-0.7486883 8.854567,-1.9292617 v 2.0773367 c 0,0.765845 -0.899532,1.611137 -2.406137,2.261043 -1.715504,0.740044 -4.00563,1.147713 -6.448494,1.147713 -2.4426707,0 -4.7325365,-0.407669 -6.4477158,-1.147713 C 4.4734547,12.447648 3.5742467,11.602487 3.5742467,10.836509 Z M 12.427259,26.13876 c -2.442089,0 -4.7320197,-0.407404 -6.4477821,-1.147251 -1.506152,-0.649311 -2.4053613,-1.493351 -2.4053613,-2.25748 v -2.371573 c 1.8129278,1.436209 5.1445059,2.315549 8.8531434,2.315549 0.250161,0 0.494427,-0.0121 0.731506,-0.02527 0.172501,1.201953 0.599945,2.363984 1.24569,3.389882 -0.657339,0.06388 -1.32083,0.09614 -1.977196,0.09614 z m 0.72561,-5.936124 c -0.234681,0.01435 -0.476486,0.02778 -0.725482,0.02778 -2.4424116,0 -4.7322771,-0.40747 -6.4477158,-1.147447 C 4.4735193,18.433262 3.5742467,17.588693 3.5742467,16.82384 v -2.373092 c 1.8091046,1.436868 5.1404885,2.316869 8.8531403,2.316869 0.648854,0 1.321997,-0.03525 2.046699,-0.107357 -0.693546,1.065622 -1.146712,2.27919 -1.321217,3.54238 z m 8.3648,7.706423 c -3.520007,0 -6.383784,-2.917482 -6.383784,-6.503413 0,-3.585866 2.863777,-6.50315 6.383784,-6.50315 3.520271,0 6.384046,2.917284 6.384046,6.50315 -6.5e-5,3.585931 -2.863839,6.503413 -6.384046,6.503413 z"
     id="path4"
     style="stroke-width:0.0653786" />
    </symbol>  
    
  
  <symbol id="cat" viewBox="0 0 24 24">
  <path d="M0 0h24v24H0V0z" fill="none"/><path d="M20 6h-8l-2-2H4c-1.11 0-1.99.89-1.99 2L2 18c0 1.11.89 2 2 2h16c1.11 0 2-.89 2-2V8c0-1.11-.89-2-2-2zm0 12H4V6h5.17l2 2H20v10zm-8-4h2v2h2v-2h2v-2h-2v-2h-2v2h-2z"/>
  </symbol>
  
  <symbol id="home" viewBox="0 0 32 32">
    <path d="M 27.048867,0 C 19.887414,0 18.545584,9.4824457 22.573228,9.4824457 26.600872,9.4824457 34.208166,0 27.046713,0 Z M 15.159779,8.3069028 C 17.30283,8.4270605 19.656955,0.6969147 15.627158,1.1835534 11.59736,1.6701921 13.014574,8.1847425 15.159779,8.3069028 Z M 5.3318964,13.111208 C 6.8568012,12.486388 5.5257403,6.3823769 2.9346944,8.0445585 0.34149473,9.7107454 3.8069916,13.734026 5.3318964,13.111208 Z M 9.628768,9.9130108 C 11.444439,9.5705614 11.545668,2.6454722 8.3063223,3.8871018 5.0669765,5.1287315 7.8152513,10.259466 9.628768,9.9150135 Z m 9.481117,15.4983412 c 0.323073,2.287002 -1.804901,3.416485 -3.887646,1.94255 C 8.5884728,22.659741 26.200262,20.318668 25.039352,13.904249 24.076595,8.5812629 6.5100361,10.219413 4.5091371,18.550347 3.1565379,24.183741 10.083224,32 17.311445,32 c 3.555957,0 7.658985,-2.985919 8.425745,-6.768884 0.585839,-2.883785 -6.896533,-1.728269 -6.627305,0.180236 z"
     style="stroke-width:2.07685" />
  </symbol>
  
  <symbol id="find" viewBox="0 0 24 24">
  <path d="M0 0h24v24H0V0z" fill="none"/><path d="M15.5 14h-.79l-.28-.27C15.41 12.59 16 11.11 16 9.5 16 5.91 13.09 3 9.5 3S3 5.91 3 9.5 5.91 16 9.5 16c1.61 0 3.09-.59 4.23-1.57l.27.28v.79l5 4.99L20.49 19l-4.99-5zm-6 0C7.01 14 5 11.99 5 9.5S7.01 5 9.5 5 14 7.01 14 9.5 11.99 14 9.5 14z"/>
  </symbol>
  
  <symbol id="exit" viewBox="0 0 24 24">
  <path d="M0 0h24v24H0V0z" fill="none"/><path d="M13 3h-2v10h2V3zm4.83 2.17l-1.42 1.42C17.99 7.86 19 9.81 19 12c0 3.87-3.13 7-7 7s-7-3.13-7-7c0-2.19 1.01-4.14 2.58-5.42L6.17 5.17C4.23 6.82 3 9.26 3 12c0 4.97 4.03 9 9 9s9-4.03 9-9c0-2.74-1.23-5.18-3.17-6.83z"/>
  </symbol>
  
  <symbol id="enter" viewBox="0 0 32 32">
    <g
     id="g6"
     transform="matrix(0.00326529,0,0,-0.00326551,-0.32644896,16.359206)">
    <path
       d="M 4544.5,4989.8 C 2688.8,4811.5 1108.5,3618.3 431.9,1882 166.5,1205.4 53,407.2 117.8,-305.9 178.6,-964.4 324.5,-1483 614.2,-2068.5 c 253.2,-514.6 528.8,-897.5 940,-1306.7 707.1,-703 1632.9,-1179.1 2625.6,-1345.2 1570.2,-265.5 3162.5,241 4284.9,1365.4 721.2,721.2 1197.3,1641 1365.5,2643.9 226.9,1343.2 -103.3,2688.4 -929.9,3788.5 -198.5,265.4 -557.1,638.2 -806.3,840.8 C 7587.5,4325.4 6884.5,4684 6284.9,4840 5707.4,4989.8 5097.6,5042.5 4544.5,4989.8 Z M 5677,4538 C 6418.5,4420.5 7143.8,4110.5 7729.3,3656.7 9688.4,2143.4 10055,-670.6 8547.8,-2619.6 7107.3,-4483.4 4485.8,-4919 2526.7,-3620.4 1477.3,-2923.5 776.3,-1827.4 569.6,-557.2 523,-263.4 523,482.1 569.6,775.9 c 261.4,1618.7 1312.8,2921.4 2834.3,3515 354.5,139.8 773.9,237 1221.6,283.6 168.2,18.2 859.1,-6.1 1051.5,-36.5 z"
       id="path2" />
    <path
       d="m 6965.5,2271 c -105.4,-32.4 -249.2,-188.4 -279.6,-297.8 -16.2,-58.8 -32.4,-338.3 -40.5,-782 L 6631.2,502.4 6564.3,366.7 C 6523.8,287.7 6463,204.6 6414.4,160.1 6260.4,30.4 6248.3,28.4 5057,28.4 H 3987.4 l -4.1,461.9 -6.1,461.9 -1013,-694.9 c -557.1,-382.9 -1015,-703 -1019,-713.1 -2,-8.1 455.8,-366.7 1019,-798.2 l 1023.1,-782 v 494.3 494.3 l 1292.5,6.1 c 1276.3,8.1 1292.5,8.1 1442.5,54.7 445.7,133.7 713.1,399.1 824.6,812.4 32.4,117.5 36.5,239.1 36.5,1134.5 0,996.8 0,1002.8 -44.6,1087.9 -109.3,200.5 -346.4,293.7 -573.3,222.8 z"
       id="path4" />
  </g>
  </symbol>
  
  <symbol id="tag" viewBox="0 0 24 24">
      <path d="M17,11v6.97l-5-2.14l-5,2.14V5h6V3H7C5.9,3,5,3.9,5,5v16l7-3l7,3V11H17z M21,7h-2v2h-2V7h-2V5h2V3h2v2h2V7z"/>
  </symbol>
  
  <symbol id="ok" viewBox="0 0 16 16">
    <circle style="fill:currentColor;fill-opacity:1;stroke:none" class="ColorScheme-PositiveText" cx="8" cy="8" r="8"/>
    <path style="fill:currentColor;fill-opacity:0.6;stroke:none" class="ColorScheme-Text" d="M8 0a8 8 0 0 0-8 8 8 8 0 0 0 8 8 8 8 0 0 0 8-8 8 8 0 0 0-8-8zm0 1a7 7 0 0 1 7 7 7 7 0 0 1-7 7 7 7 0 0 1-7-7 7 7 0 0 1 7-7z"/>
    <path d="M12.586 3.586L6.5 9.672 3.414 6.586 2 8l4.5 4.5L14 5z" fill="#fff"/>
  </symbol>
  
  <symbol id="warn" viewBox="0 0 16 16">
    <circle style="fill:currentColor;fill-opacity:1;stroke:none" class="ColorScheme-NeutralText" cx="8" cy="8" r="8"/>
    <path style="fill:currentColor;fill-opacity:0.6;stroke:none" class="ColorScheme-Text" d="M8 0a8 8 0 0 0-8 8 8 8 0 0 0 8 8 8 8 0 0 0 8-8 8 8 0 0 0-8-8zm0 1a7 7 0 0 1 7 7 7 7 0 0 1-7 7 7 7 0 0 1-7-7 7 7 0 0 1 7-7z"/>
    <path d="M7 2v9h2V2zm0 10v2h2v-2z" fill="#fff"/>
  </symbol>
  
  <symbol id="logo" viewBox="0 0 18 32">
      <path
   d="M 15.967408,2.2305494 C 14.24195,2.7764368 13.128046,3.736442 12.574288,5.1670396 l -0.21236,0.5458874 0.03224,-0.583535 c 0.01906,-0.3200017 0.05781,-0.6588274 0.07728,-0.7529465 l 0.04504,-0.1682849 -0.411959,0.2635276 C 11.492975,4.8481585 10.314557,5.9211093 9.934855,6.4613467 9.381096,7.2331168 8.943264,8.3587704 8.846827,9.2416017 8.827777,9.4486555 8.789037,9.6557225 8.756777,9.6557225 8.685877,9.7022215 8.557184,8.9215999 8.544419,8.3380649 c 0,-0.2823541 -0.01284,-0.5082369 -0.01954,-0.5082369 -0.0064,0 -0.199596,0.2070539 -0.425065,0.4705893 C 7.475157,9.0345399 6.99868,9.7121912 6.573953,10.504667 5.910651,11.747028 5.575979,12.836919 5.485924,14.084926 l -0.04504,0.621182 -0.122321,-0.338827 c -0.09644,-0.282355 -0.128705,-0.508238 -0.128705,-1.110593 0,-0.884714 0.01284,-0.884714 -0.489244,-0.08696 -0.57291,0.903537 -0.997975,2.05931 -1.158928,3.168022 -0.04504,0.30118 -0.06451,0.960007 -0.04504,1.618835 0.01284,0.602356 0.01905,1.091772 0.0064,1.091772 -0.03224,0 -0.321907,-0.545888 -0.399189,-0.752947 -0.03866,-0.116134 -0.09644,-0.357649 -0.122321,-0.545887 L 2.930108,17.391874 2.7305145,17.824818 c -0.3282907,0.696475 -0.4250631,1.280009 -0.3864224,2.228721 0.025854,0.602358 0.077282,0.960007 0.1932129,1.392951 0.090052,0.320002 0.1545609,0.583532 0.1417939,0.602357 -0.04507,0.04044 -0.4506298,-0.545888 -0.5860453,-0.847065 L 1.9515963,20.88178 1.9001913,21.107661 c -0.070885,0.338839 0.083678,1.280019 0.3733356,2.28144 0.3155214,1.091771 0.3413941,1.242358 0.2573886,1.449421 -0.4569855,1.110595 -1.3134969,3.382612 -1.55811892,4.120498 -0.6438119,1.908717 -0.8242547,2.780254 -0.5987856,2.844255 0.1028211,0.03482 0.2318524,-0.207064 0.5087328,-0.941185 C 1.9580043,27.94819 3.7093345,23.81075 5.1256545,20.798965 7.0379365,16.736821 9.5490075,12.29632 12.613835,7.5377018 13.16121,6.6906363 14.056027,5.4783929 14.139694,5.4783929 c 0.01284,0 -0.347777,0.5835347 -0.785611,1.3176573 -2.859855,4.6720318 -5.7506255,9.8786518 -7.2509515,13.0466738 -0.997976,2.112012 -2.253677,4.961915 -2.20193,5.008973 0.0514,0.04651 1.184803,-0.357649 2.015441,-0.715297 0.766122,-0.338826 0.914306,-0.432945 1.345756,-0.809418 0.26411,-0.244723 0.470089,-0.451769 0.456985,-0.470591 -0.01905,-0.01134 -0.218743,0.01134 -0.444217,0.05816 -0.225458,0.04631 -0.631045,0.09862 -0.894819,0.121781 l -0.482859,0.02897 0.225482,-0.09883 c 0.122321,-0.05196 0.547374,-0.225881 0.940181,-0.395298 1.448577,-0.621179 2.575584,-1.600009 3.3030645,-2.913899 l 0.13541,-0.244713 -0.315522,0.174105 c -0.4250635,0.244712 -0.9852065,0.41412 -1.4872185,0.451768 l -0.418682,0.03483 0.431451,-0.207054 c 0.560142,-0.263527 1.062491,-0.621182 1.6740435,-1.185891 0.843409,-0.77177 1.454963,-1.562364 2.105495,-2.733194 0.251007,-0.470592 0.77923,-1.543541 0.77923,-1.618835 0,-0.01138 -0.199596,0.05817 -0.437835,0.150967 -0.444217,0.168287 -1.197571,0.320001 -1.409936,0.282353 -0.08367,-0.01719 -0.01284,-0.06964 0.238238,-0.185799 1.615915,-0.752947 2.826591,-2.245661 3.798694,-4.7059136 0.06451,-0.1628271 0.135072,-0.3388254 0.167324,-0.3952969 0.04504,-0.1101216 0.03866,-0.1101216 -0.17373,0.00582 -0.31552,0.1741052 -1.165313,0.4329446 -1.455298,0.4329446 H 13.753261 L 14.165556,9.6874992 C 14.983089,9.2545547 15.897394,8.2004301 16.3611,7.1575979 16.599338,6.6305371 16.811703,5.8964147 16.811703,5.6328816 V 5.4446567 l -0.244622,0.1799525 c -0.225457,0.1622451 -0.81787,0.4141178 -0.985206,0.4141178 -0.03866,0 0.128705,-0.2070538 0.366932,-0.4517653 0.772508,-0.7905941 1.229828,-1.6000118 1.538966,-2.6691941 0.205975,-0.7152986 0.205975,-0.7905939 0.01905,-0.7341225 -0.315522,0.086762 -0.894817,0.3952969 -1.339373,0.7341225 -0.257388,0.1856052 -0.48286,0.3388257 -0.495626,0.3388257 -0.03227,0 0.399189,-0.6023588 0.605168,-0.8658891 0.09005,-0.1044686 0.148178,-0.2070539 0.135073,-0.2070539 -0.01315,-0.01164 -0.213025,0.034833 -0.444888,0.1101216 z" />
      </symbol>

</svg>
