<?xml version="1.0" encoding="utf-8"?>
<!-- Svg Vector Icons : http://www.onlinewebfonts.com/icon -->
<!DOCTYPE svg PUBLIC "-//W3C//DTD SVG 1.1//EN" "http://www.w3.org/Graphics/SVG/1.1/DTD/svg11.dtd">
<svg version="1.1" xmlns="http://www.w3.org/2000/svg" xmlns:xlink="http://www.w3.org/1999/xlink" x="0px" y="0px" viewBox="0 0 1000 1000" enable-background="new 0 0 1000 1000" xml:space="preserve">
<metadata> Svg Vector Icons : http://www.onlinewebfonts.com/icon </metadata>
<g><g transform="translate(0.000000,511.000000) scale(0.100000,-0.100000)"><path d="M3108,4890.6c-209.5-65.2-361.7-223.3-426.9-444.7c-27.7-88.9-31.6-239.1-31.6-962.4v-855.7l164,106.7c88.9,57.3,217.4,134.4,286.6,168l122.5,61.3v681.8v681.8h3057.2h3055.2l-11.8-745c-7.9-409.1-13.8-1284.6-13.8-1946.6V434.2H6519H3726.6l203.5-106.7c110.7-59.3,262.8-150.2,336-201.6c183.8-132.4,492.1-434.8,618.6-610.7L4991.4-631l213.4-2h211.5v-336c0-322.1-2-336-39.5-336c-47.4,0-47.4,5.9,0-177.9c21.7-81,39.5-168,39.5-191.7v-45.4h1280.6c1181.8,0,1282.6,4,1320.1,35.6c108.7,87,116.6,215.4,19.8,312.2l-67.2,67.2h-407.1h-407.1v336v334l1132.4,5.9l1130.4,5.9l112.6,55.3c142.3,69.2,276.7,217.4,332,361.6c39.5,108.7,39.5,126.5,35.6,2385.3l-5.9,2276.6l-53.4,102.8c-69.2,130.4-168,229.2-298.4,298.4l-102.8,53.4l-3122.4,4C3748.3,4916.3,3177.2,4912.3,3108,4890.6z"/><path d="M4270,2912.4c-27.7-3.9-124.5-17.8-217.4-29.6c-462.4-61.3-905.1-274.7-1243-598.8c-314.2-304.3-500-662-604.7-1167.9l-45.4-217.4l-298.4,5.9l-300.4,5.9L1663.4,786c55.3-69.2,229.2-320.1,389.3-559.3C2370.9-255.5,2590.2-557.9,2612-550c17.8,5.9,1104.7,1432.8,1104.7,1448.6c0,5.9-142.3,9.9-316.2,9.9c-316.2,0-316.2,0-316.2,45.4c0,90.9,85,343.9,164,494.1c286.6,539.5,826.1,924.9,1515.8,1083c292.5,69.2,1053.3,71.2,1260.8,3.9c57.3-17.8-59.3,69.2-173.9,130.4c-286.6,150.2-697.6,237.1-1195.6,249C4471.6,2918.3,4297.7,2918.3,4270,2912.4z"/><path d="M1641.7,70.6C1011.2-192.3,521.1-682.4,276.1-1295C62.7-1828.6,42.9-2445.2,218.8-2986.6c357.7-1090.9,1436.7-1804.3,2567.1-1697.6c632.4,59.3,1171.9,324.1,1600.7,782.6c434.8,466.4,656.1,1039.5,656.1,1695.6c0,517.8-144.3,978.2-440.7,1409.1c-128.5,189.7-415,480.2-592.9,606.7c-122.5,87-496,288.5-531.6,288.5c-9.9,0-83-88.9-166-197.6c-136.4-179.9-162.1-237.1-106.7-237.1c57.3,0,341.9-138.3,492.1-239.1c187.7-124.5,422.9-359.7,539.5-537.5c106.7-160.1,225.3-419,274.7-600.8c35.6-130.4,43.5-209.5,43.5-500c2-411-29.6-559.3-185.8-879.4c-306.3-632.4-920.9-1059.2-1606.7-1114.6C1778-4287,922.3-3688.2,659.5-2733.7c-47.4,171.9-53.3,229.2-55.3,500c0,349.8,29.6,517.8,142.3,788.5c215.4,523.7,652.2,934.8,1177.8,1108.7l134.4,43.5l-37.5,59.3C1928.2-87.5,1778,118,1764.2,118C1756.3,116,1700.9,96.3,1641.7,70.6z"/><path d="M2066.5-581.6c-288.5-92.9-505.9-233.2-723.3-460.5c-276.7-290.5-432.8-632.4-466.4-1021.7L865-2213.9h132.4h130.4v69.2c0,106.7,57.3,361.7,110.7,492.1c175.9,432.8,579,764.8,1039.5,861.7l114.6,21.7l-79.1,118.6c-45.4,63.2-86.9,116.6-94.9,116.6C2210.8-536.1,2143.6-555.9,2066.5-581.6z"/><path d="M2278-1026.2c-229.2-57.3-387.3-148.2-569.2-328c-122.5-122.5-177.9-195.7-233.2-310.3c-73.1-152.2-128.5-363.6-130.4-484.2v-65.2h116.6h114.6l11.9,104.7c27.7,235.2,152.2,474.3,326.1,628.4c124.5,110.7,345.8,213.4,515.8,241.1l140.3,21.7v114.6v114.6l-73.1-2C2455.9-990.7,2357.1-1008.4,2278-1026.2z"/><path d="M2390.6-1547.9c-385.4-108.7-590.9-494.1-472.3-885.4c37.5-124.5,59.3-160.1,164-264.8c166-166,292.5-213.4,529.6-203.5c134.4,5.9,191.7,19.8,278.7,61.3c142.3,69.2,264.8,193.7,330,330c43.5,92.9,51.4,136.3,51.4,296.4c0,168-5.9,199.6-59.3,302.4C3068.5-1625,2698.9-1461,2390.6-1547.9z M2708.8-1953.1c37.5-17.8,88.9-65.2,114.6-102.8c39.5-57.3,45.5-87,39.5-183.8c-7.9-100.8-17.8-124.5-79-185.8c-61.3-61.3-88.9-73.1-181.8-81c-132.4-9.9-227.3,39.5-278.7,148.2c-41.5,86.9-31.6,225.3,23.7,300.4C2446-1927.4,2578.4-1887.9,2708.8-1953.1z"/><path d="M3558.6-2279.2c0-195.7-96.8-432.8-247-602.8c-154.1-175.9-448.6-320.1-654.1-320.1h-86.9v-118.6v-118.6h94.9c205.5,0,517.8,122.5,701.6,274.7c268.8,223.3,446.6,573.1,448.6,877.4v92.9h-128.5h-128.5V-2279.2z"/><path d="M4044.8-2217.9c-5.9-13.8-13.8-88.9-19.8-164c-53.4-662-624.5-1229.2-1292.5-1290.5l-152.2-13.8v-128.5v-126.5l108.7,5.9c260.9,11.8,588.9,118.6,810.3,262.8c464.4,304.3,790.5,865.6,790.5,1361.6v116.6h-118.6C4092.2-2194.2,4048.7-2202.1,4044.8-2217.9z"/></g></g>
</svg>