<svg xmlns="http://www.w3.org/2000/svg" xmlns:xlink="http://www.w3.org/1999/xlink">

  <symbol id="user" viewBox="0 0 32 32">
    <path d="m14.545 0a8.7273 8 0 00-8.7273 8 8.7273 8 0 008.7273 8 8.7273 8 0 008.7273-8 8.7273 8 0 00-8.7273-8m0 2.6667a5.8182 5.3333 0 015.8182 5.3333 5.8182 5.3333 0 01-5.8182 5.3333 5.8182 5.3333 0 01-5.8182-5.3333 5.8182 5.3333 0 015.8182-5.3333m0 16a14.545 12 0 00-14.545 12 14.545 12 0 00.09659 1.3333h14.449v-2.6667h-11.505a11.636 9.3333 0 0111.505-8zm8.7273 0v5.3333h-5.8182v2.6667h5.8182v5.3333h2.9091v-5.3333h5.8182v-2.6667h-5.8182v-5.3333z"/>
  </symbol>

  <symbol id="add" viewBox="0 0 32 32">
      <path d="m 8.2905325,18.272 a 1.0982141,1.1428571 0 0 0 -0.8917499,0.523428 l -2.196428,3.428573 a 1.0982141,1.1428571 0 1 0 1.827428,1.266285 l 2.196428,-3.428572 A 1.0982141,1.1428571 0 0 0 8.2905325,18.272 Z m 15.3837825,0 a 1.0982141,1.1428571 0 0 0 -0.900535,1.789714 l 2.196427,3.428572 a 1.0982141,1.1428571 0 1 0 1.827427,-1.266285 L 24.601207,18.795428 A 1.0982141,1.1428571 0 0 0 23.674315,18.272 Z M 13.803567,0 V 12.715428 L 10.989942,9.7828569 A 2.2293746,2.3199998 0 0 0 9.4107107,9.142857 h -2.196428 v 2.285714 c 0,0.605714 0.2042675,1.211429 0.6171963,1.643429 l 6.589284,6.857142 0.619393,0.642287 h 1.921875 L 17.57703,19.929142 24.166315,13.072 c 0.41732,-0.432 0.61939,-1.037715 0.61939,-1.643429 V 9.142857 h -2.196426 c -0.582053,0 -1.164104,0.2125716 -1.57923,0.6422856 L 18.196423,12.715428 V 0 Z M 5.0178544,22.857143 V 32 H 26.982134 v -9.142857 z m 7.3448556,3.286858 a 1.4298748,1.488 0 0 1 0.136178,0 c 0.63916,-0.128002 1.317857,0.463999 1.304678,1.142857 v 0.141716 h 4.392857 v -0.144012 a 1.1421426,1.1885714 0 0 1 1.098213,-1.158857 1.1421426,1.1885714 0 0 1 1.098216,1.158857 v 0.144012 c 0,1.245716 -0.999377,2.285714 -2.196429,2.285714 h -4.392856 c -1.197053,0 -2.196428,-1.039998 -2.196428,-2.285714 v -0.144012 a 1.1311605,1.1771428 0 0 1 0.755571,-1.142849 z"/>
  </symbol>
  
  <symbol id="backup" viewBox="0 0 32 32">
    <g transform="matrix(0.0032653,0,0,-0.00333006,-0.32663157,16.366228)">
    <path d="m 3108,4890.6 c -209.5,-65.2 -361.7,-223.3 -426.9,-444.7 -27.7,-88.9 -31.6,-239.1 -31.6,-962.4 v -855.7 l 164,106.7 c 88.9,57.3 217.4,134.4 286.6,168 l 122.5,61.3 V 4327.4 H 9335 l -11.8,-745 c -7.9,-409.1 -13.8,-1284.6 -13.8,-1946.6 V 434.2 H 3726.6 l 203.5,-106.7 c 110.7,-59.3 262.8,-150.2 336,-201.6 183.8,-132.4 492.1,-434.8 618.6,-610.7 l 106.7,-146.2 213.4,-2 h 211.5 v -336 c 0,-322.1 -2,-336 -39.5,-336 -47.4,0 -47.4,5.9 0,-177.9 21.7,-81 39.5,-168 39.5,-191.7 v -45.4 h 1280.6 c 1181.8,0 1282.6,4 1320.1,35.6 108.7,87 116.6,215.4 19.8,312.2 l -67.2,67.2 h -814.2 v 670 l 1132.4,5.9 1130.4,5.9 112.6,55.3 c 142.3,69.2 276.7,217.4 332,361.6 39.5,108.7 39.5,126.5 35.6,2385.3 l -5.9,2276.6 -53.4,102.8 c -69.2,130.4 -168,229.2 -298.4,298.4 l -102.8,53.4 -3122.4,4 c -2567.2,2.1 -3138.3,-1.9 -3207.5,-23.6 z"/>
    <path d="m 4270,2912.4 c -27.7,-3.9 -124.5,-17.8 -217.4,-29.6 -462.4,-61.3 -905.1,-274.7 -1243,-598.8 -314.2,-304.3 -500,-662 -604.7,-1167.9 l -45.4,-217.4 -298.4,5.9 -300.4,5.9 102.7,-124.5 c 55.3,-69.2 229.2,-320.1 389.3,-559.3 318.2,-482.2 537.5,-784.6 559.3,-776.7 17.8,5.9 1104.7,1432.8 1104.7,1448.6 0,5.9 -142.3,9.9 -316.2,9.9 -316.2,0 -316.2,0 -316.2,45.4 0,90.9 85,343.9 164,494.1 286.6,539.5 826.1,924.9 1515.8,1083 292.5,69.2 1053.3,71.2 1260.8,3.9 57.3,-17.8 -59.3,69.2 -173.9,130.4 -286.6,150.2 -697.6,237.1 -1195.6,249 -183.8,4 -357.7,4 -385.4,-1.9 z"/>
    <path d="M 1641.7,70.6 C 1011.2,-192.3 521.1,-682.4 276.1,-1295 62.7,-1828.6 42.9,-2445.2 218.8,-2986.6 c 357.7,-1090.9 1436.7,-1804.3 2567.1,-1697.6 632.4,59.3 1171.9,324.1 1600.7,782.6 434.8,466.4 656.1,1039.5 656.1,1695.6 0,517.8 -144.3,978.2 -440.7,1409.1 -128.5,189.7 -415,480.2 -592.9,606.7 -122.5,87 -496,288.5 -531.6,288.5 -9.9,0 -83,-88.9 -166,-197.6 -136.4,-179.9 -162.1,-237.1 -106.7,-237.1 57.3,0 341.9,-138.3 492.1,-239.1 187.7,-124.5 422.9,-359.7 539.5,-537.5 106.7,-160.1 225.3,-419 274.7,-600.8 35.6,-130.4 43.5,-209.5 43.5,-500 2,-411 -29.6,-559.3 -185.8,-879.4 -306.3,-632.4 -920.9,-1059.2 -1606.7,-1114.6 -984.1,-79.2 -1839.8,519.6 -2102.6,1474.1 -47.4,171.9 -53.3,229.2 -55.3,500 0,349.8 29.6,517.8 142.3,788.5 215.4,523.7 652.2,934.8 1177.8,1108.7 l 134.4,43.5 -37.5,59.3 c -93,146.2 -243.2,351.7 -257,351.7 -7.9,-2 -63.3,-21.7 -122.5,-47.4 z"/>
    <path d="M 2066.5,-581.6 C 1778,-674.5 1560.6,-814.8 1343.2,-1042.1 1066.5,-1332.6 910.4,-1674.5 876.8,-2063.8 L 865,-2213.9 h 262.8 v 69.2 c 0,106.7 57.3,361.7 110.7,492.1 175.9,432.8 579,764.8 1039.5,861.7 l 114.6,21.7 -79.1,118.6 c -45.4,63.2 -86.9,116.6 -94.9,116.6 -7.8,-2.1 -75,-21.9 -152.1,-47.6 z"/>
    <path d="m 2278,-1026.2 c -229.2,-57.3 -387.3,-148.2 -569.2,-328 -122.5,-122.5 -177.9,-195.7 -233.2,-310.3 -73.1,-152.2 -128.5,-363.6 -130.4,-484.2 v -65.2 h 231.2 l 11.9,104.7 c 27.7,235.2 152.2,474.3 326.1,628.4 124.5,110.7 345.8,213.4 515.8,241.1 l 140.3,21.7 v 229.2 l -73.1,-2 c -41.5,0.1 -140.3,-17.6 -219.4,-35.4 z"/>
    <path d="m 2390.6,-1547.9 c -385.4,-108.7 -590.9,-494.1 -472.3,-885.4 37.5,-124.5 59.3,-160.1 164,-264.8 166,-166 292.5,-213.4 529.6,-203.5 134.4,5.9 191.7,19.8 278.7,61.3 142.3,69.2 264.8,193.7 330,330 43.5,92.9 51.4,136.3 51.4,296.4 0,168 -5.9,199.6 -59.3,302.4 -144.2,286.5 -513.8,450.5 -822.1,363.6 z m 318.2,-405.2 c 37.5,-17.8 88.9,-65.2 114.6,-102.8 39.5,-57.3 45.5,-87 39.5,-183.8 -7.9,-100.8 -17.8,-124.5 -79,-185.8 -61.3,-61.3 -88.9,-73.1 -181.8,-81 -132.4,-9.9 -227.3,39.5 -278.7,148.2 -41.5,86.9 -31.6,225.3 23.7,300.4 98.9,130.5 231.3,170 361.7,104.8 z"/>
    <path d="m 3558.6,-2279.2 c 0,-195.7 -96.8,-432.8 -247,-602.8 -154.1,-175.9 -448.6,-320.1 -654.1,-320.1 h -86.9 v -237.2 h 94.9 c 205.5,0 517.8,122.5 701.6,274.7 268.8,223.3 446.6,573.1 448.6,877.4 v 92.9 h -257 v -84.9 z"/>
    <path d="m 4044.8,-2217.9 c -5.9,-13.8 -13.8,-88.9 -19.8,-164 -53.4,-662 -624.5,-1229.2 -1292.5,-1290.5 l -152.2,-13.8 v -255 l 108.7,5.9 c 260.9,11.8 588.9,118.6 810.3,262.8 464.4,304.3 790.5,865.6 790.5,1361.6 v 116.6 h -118.6 c -79,0.1 -122.5,-7.8 -126.4,-23.6 z"/>
  </g>
  </symbol>
  
  <symbol id="cat" viewBox="0 0 32 32">
  <path d="m 0,0 v 2.6666667 8.0000003 2.666666 16 V 32 H 16.333333 V 29.333333 H 2.3333333 v -16 H 25.666667 v 5.333334 H 28 v -8 V 8 5.3333333 H 16.351562 L 11.684896,0 11.666667,0.02083333 V 0 H 2.3333333 Z m 2.3333333,2.6666667 h 8.3808597 l 2.33789,2.6666666 H 11.666667 V 5.35416 L 11.648438,5.3333333 6.9817708,10.666667 H 2.3333333 Z M 21,18.666667 V 24 h -4.666667 v 2.666667 H 21 V 32 h 2.333333 V 26.666667 H 28 V 24 h -4.666667 v -5.333333 z" />
  </symbol>
  
  <symbol id="home" viewBox="0 0 32 32">
    <path d="M 27.048867,0 C 19.887414,0 18.545584,9.4824457 22.573228,9.4824457 26.600872,9.4824457 34.208166,0 27.046713,0 Z M 15.159779,8.3069028 C 17.30283,8.4270605 19.656955,0.6969147 15.627158,1.1835534 11.59736,1.6701921 13.014574,8.1847425 15.159779,8.3069028 Z M 5.3318964,13.111208 C 6.8568012,12.486388 5.5257403,6.3823769 2.9346944,8.0445585 0.34149473,9.7107454 3.8069916,13.734026 5.3318964,13.111208 Z M 9.628768,9.9130108 C 11.444439,9.5705614 11.545668,2.6454722 8.3063223,3.8871018 5.0669765,5.1287315 7.8152513,10.259466 9.628768,9.9150135 Z m 9.481117,15.4983412 c 0.323073,2.287002 -1.804901,3.416485 -3.887646,1.94255 C 8.5884728,22.659741 26.200262,20.318668 25.039352,13.904249 24.076595,8.5812629 6.5100361,10.219413 4.5091371,18.550347 3.1565379,24.183741 10.083224,32 17.311445,32 c 3.555957,0 7.658985,-2.985919 8.425745,-6.768884 0.585839,-2.883785 -6.896533,-1.728269 -6.627305,0.180236 z"
     style="stroke-width:2.07685" />
  </symbol>
  
  <symbol id="find" viewBox="0 0 32 32">
  <path d="M 12,0 C 5.352,0 0,5.3582559 0,11.996095 c 0,6.645837 5.36,11.996096 12,11.996096 2.836382,0 5.403576,-1.0162 7.453125,-2.65018 L 30.114584,32 32,30.115198 21.338541,19.457208 C 22.980277,17.405129 24,14.836072 24,11.996095 24,5.3502585 18.64,0 12,0 Z m 0,2.6657989 c 5.170667,0 9.333333,4.1613122 9.333333,9.3302961 0,5.168984 -4.162666,9.330297 -9.333333,9.330297 -5.1706667,0 -9.3333333,-4.161313 -9.3333333,-9.330297 0,-5.1689839 4.1626666,-9.3302961 9.3333333,-9.3302961 z" />
  </symbol>
  
  <symbol id="exit" viewBox="0 0 32 32">
  <path d="M 8.6538363,3.8682114 A 2.1436256,2.1311768 0 0 0 7.4834476,4.1665793 15.023777,14.937645 0 0 0 0.50820754,20.938927 15.017842,14.931334 0 0 0 14.977383,31.999998 15.020809,14.933385 0 0 0 29.480832,20.981686 15.026744,14.939854 0 0 0 22.550696,4.1872489 2.1445364,2.132144 0 1 0 20.392085,7.8721162 10.698543,10.63695 0 0 1 25.339427,19.864424 10.696466,10.634741 0 0 1 14.981686,27.734962 10.694389,10.63269 0 0 1 4.6496126,19.834602 10.700769,10.639001 0 0 1 9.6312274,7.8571268 2.1436256,2.1311768 0 0 0 8.6516107,3.8674225 Z M 14.964535,0 A 2.1436256,2.1311768 0 0 0 12.855182,2.1632068 V 12.819249 a 2.1436256,2.1311768 0 1 0 4.287103,0 V 2.1632068 A 2.1436256,2.1311768 0 0 0 14.964386,0.002209 Z" />
  </symbol>
  
  <symbol id="enter" viewBox="0 0 32 32">
    <g
     id="g6"
     transform="matrix(0.00326529,0,0,-0.00326551,-0.32644896,16.359206)">
    <path
       d="M 4544.5,4989.8 C 2688.8,4811.5 1108.5,3618.3 431.9,1882 166.5,1205.4 53,407.2 117.8,-305.9 178.6,-964.4 324.5,-1483 614.2,-2068.5 c 253.2,-514.6 528.8,-897.5 940,-1306.7 707.1,-703 1632.9,-1179.1 2625.6,-1345.2 1570.2,-265.5 3162.5,241 4284.9,1365.4 721.2,721.2 1197.3,1641 1365.5,2643.9 226.9,1343.2 -103.3,2688.4 -929.9,3788.5 -198.5,265.4 -557.1,638.2 -806.3,840.8 C 7587.5,4325.4 6884.5,4684 6284.9,4840 5707.4,4989.8 5097.6,5042.5 4544.5,4989.8 Z M 5677,4538 C 6418.5,4420.5 7143.8,4110.5 7729.3,3656.7 9688.4,2143.4 10055,-670.6 8547.8,-2619.6 7107.3,-4483.4 4485.8,-4919 2526.7,-3620.4 1477.3,-2923.5 776.3,-1827.4 569.6,-557.2 523,-263.4 523,482.1 569.6,775.9 c 261.4,1618.7 1312.8,2921.4 2834.3,3515 354.5,139.8 773.9,237 1221.6,283.6 168.2,18.2 859.1,-6.1 1051.5,-36.5 z"
       id="path2" />
    <path
       d="m 6965.5,2271 c -105.4,-32.4 -249.2,-188.4 -279.6,-297.8 -16.2,-58.8 -32.4,-338.3 -40.5,-782 L 6631.2,502.4 6564.3,366.7 C 6523.8,287.7 6463,204.6 6414.4,160.1 6260.4,30.4 6248.3,28.4 5057,28.4 H 3987.4 l -4.1,461.9 -6.1,461.9 -1013,-694.9 c -557.1,-382.9 -1015,-703 -1019,-713.1 -2,-8.1 455.8,-366.7 1019,-798.2 l 1023.1,-782 v 494.3 494.3 l 1292.5,6.1 c 1276.3,8.1 1292.5,8.1 1442.5,54.7 445.7,133.7 713.1,399.1 824.6,812.4 32.4,117.5 36.5,239.1 36.5,1134.5 0,996.8 0,1002.8 -44.6,1087.9 -109.3,200.5 -346.4,293.7 -573.3,222.8 z"
       id="path4" />
  </g>
  </symbol>
  
  <symbol id="tag" viewBox="0 0 16 16">
      <path id="tag" d="M5.525 0C4.433 0 3.61.68 3.295 1.295c-.314.615-.3 1.205-.3 1.205v13.117l5-2.5 5 2.5V11h-2v1.383l-3-1.5-3 1.5V2.5s.013-.16.081-.295c.069-.134.01-.205.45-.205h4.968c.417 0 .35.06.418.197s.082.303.082.303V3h2v-.5s.014-.584-.293-1.197C12.394.689 11.577 0 10.494 0z M11 4v2H9v2h2v2h2V8h2V6h-2V4z"/>
  </symbol>
  
  <symbol id="ok" viewBox="0 0 16 16">
    <circle style="fill:currentColor;fill-opacity:1;stroke:none" class="ColorScheme-PositiveText" cx="8" cy="8" r="8"/>
    <path style="fill:currentColor;fill-opacity:0.6;stroke:none" class="ColorScheme-Text" d="M8 0a8 8 0 0 0-8 8 8 8 0 0 0 8 8 8 8 0 0 0 8-8 8 8 0 0 0-8-8zm0 1a7 7 0 0 1 7 7 7 7 0 0 1-7 7 7 7 0 0 1-7-7 7 7 0 0 1 7-7z"/>
    <path d="M12.586 3.586L6.5 9.672 3.414 6.586 2 8l4.5 4.5L14 5z" fill="#fff"/>
  </symbol>
  
  <symbol id="warn" viewBox="0 0 16 16">
    <circle style="fill:currentColor;fill-opacity:1;stroke:none" class="ColorScheme-NeutralText" cx="8" cy="8" r="8"/>
    <path style="fill:currentColor;fill-opacity:0.6;stroke:none" class="ColorScheme-Text" d="M8 0a8 8 0 0 0-8 8 8 8 0 0 0 8 8 8 8 0 0 0 8-8 8 8 0 0 0-8-8zm0 1a7 7 0 0 1 7 7 7 7 0 0 1-7 7 7 7 0 0 1-7-7 7 7 0 0 1 7-7z"/>
    <path d="M7 2v9h2V2zm0 10v2h2v-2z" fill="#fff"/>
  </symbol>

</svg>
